<?xml version="1.0" encoding="utf-8"?>
<!-- Generated by Mocodo 4.2.12 -->
<svg width="741" height="812" viewBox="0 0 741 812" xmlns="http://www.w3.org/2000/svg">
<rect x="0" y="0" width="741" height="812" fill="#f7f7f7" stroke="none" stroke-width="0"/>

<!-- Association CREER1 -->
<g>
	<line x1="446" y1="363" x2="570" y2="85" stroke="#8073ac" stroke-width="2"/>
	<line x1="690" y1="211" x2="570" y2="85" stroke="#8073ac" stroke-width="2"/>
	<g>
		<path d="M600 60 a14 14 90 0 1 14 14 V85 h-88 V74 a14 14 90 0 1 14 -14" fill="#b2abd2" stroke="#b2abd2" stroke-width="0"/>
		<path d="M614 85 v11 a14 14 90 0 1 -14 14 H540 a14 14 90 0 1 -14 -14 V85 H88" fill="#d8daeb" stroke="#d8daeb" stroke-width="0"/>
		<rect x="526" y="60" width="88" height="50" fill="none" rx="14" stroke="#8073ac" stroke-width="2"/>
		<line x1="526" y1="85" x2="614" y2="85" stroke="#8073ac" stroke-width="1"/>
		<text x="550" y="77.75" fill="#000000" font-family="Verdana" font-size="12">CREER</text>
		<text x="533" y="102.8" fill="#000000" font-family="Verdana" font-size="12">profile_id_1</text>
	</g>
	<text x="467.99" y="253" fill="#b35806" font-family="Verdana" font-size="12">0,N</text>
	<text x="622" y="177.07" fill="#b35806" font-family="Verdana" font-size="12">1,1</text>
</g>

<!-- Association CREER -->
<g>
	<line x1="446" y1="363" x2="321" y2="211" stroke="#8073ac" stroke-width="2"/>
	<line x1="188" y1="211" x2="321" y2="211" stroke="#8073ac" stroke-width="2"/>
	<g>
		<path d="M335 186 a14 14 90 0 1 14 14 V211 h-56 V200 a14 14 90 0 1 14 -14" fill="#b2abd2" stroke="#b2abd2" stroke-width="0"/>
		<path d="M349 211 v11 a14 14 90 0 1 -14 14 H307 a14 14 90 0 1 -14 -14 V211 H56" fill="#d8daeb" stroke="#d8daeb" stroke-width="0"/>
		<rect x="293" y="186" width="56" height="50" fill="none" rx="14" stroke="#8073ac" stroke-width="2"/>
		<line x1="293" y1="211" x2="349" y2="211" stroke="#8073ac" stroke-width="1"/>
		<text x="301" y="203.75" fill="#000000" font-family="Verdana" font-size="12">CREER</text>
	</g>
	<text x="373" y="316.75" fill="#b35806" font-family="Verdana" font-size="12">1,1</text>
	<text x="231" y="228" fill="#b35806" font-family="Verdana" font-size="12">1,1</text>
</g>

<!-- Association APPARTIENT -->
<g>
	<line x1="446" y1="85" x2="446" y2="211" stroke="#8073ac" stroke-width="2"/>
	<line x1="446" y1="363" x2="446" y2="211" stroke="#8073ac" stroke-width="2"/>
	<g>
		<path d="M478 186 a14 14 90 0 1 14 14 V211 h-92 V200 a14 14 90 0 1 14 -14" fill="#b2abd2" stroke="#b2abd2" stroke-width="0"/>
		<path d="M492 211 v11 a14 14 90 0 1 -14 14 H414 a14 14 90 0 1 -14 -14 V211 H92" fill="#d8daeb" stroke="#d8daeb" stroke-width="0"/>
		<rect x="400" y="186" width="92" height="50" fill="none" rx="14" stroke="#8073ac" stroke-width="2"/>
		<line x1="400" y1="211" x2="492" y2="211" stroke="#8073ac" stroke-width="1"/>
		<text x="408" y="203.75" fill="#000000" font-family="Verdana" font-size="12">APPARTIENT</text>
	</g>
	<text x="451" y="178" fill="#b35806" font-family="Verdana" font-size="12">1,1</text>
	<text x="451" y="253" fill="#b35806" font-family="Verdana" font-size="12">1,1</text>
</g>

<!-- Association APPARTIENT4 -->
<g>
	<line x1="446" y1="363" x2="570" y2="211" stroke="#8073ac" stroke-width="2"/>
	<line x1="690" y1="211" x2="570" y2="211" stroke="#8073ac" stroke-width="2"/>
	<g>
		<path d="M602 186 a14 14 90 0 1 14 14 V211 h-92 V200 a14 14 90 0 1 14 -14" fill="#b2abd2" stroke="#b2abd2" stroke-width="0"/>
		<path d="M616 211 v11 a14 14 90 0 1 -14 14 H538 a14 14 90 0 1 -14 -14 V211 H92" fill="#d8daeb" stroke="#d8daeb" stroke-width="0"/>
		<rect x="524" y="186" width="92" height="50" fill="none" rx="14" stroke="#8073ac" stroke-width="2"/>
		<line x1="524" y1="211" x2="616" y2="211" stroke="#8073ac" stroke-width="1"/>
		<text x="532" y="203.75" fill="#000000" font-family="Verdana" font-size="12">APPARTIENT</text>
		<text x="531" y="228.8" fill="#000000" font-family="Verdana" font-size="12">profile_id_2</text>
	</g>
	<text x="498" y="316.33" fill="#b35806" font-family="Verdana" font-size="12">0,N</text>
	<text x="622" y="228" fill="#b35806" font-family="Verdana" font-size="12">1,1</text>
</g>

<!-- Association APPARTIENT1 -->
<g>
	<line x1="188" y1="211" x2="55" y2="363" stroke="#8073ac" stroke-width="2"/>
	<line x1="188" y1="363" x2="55" y2="363" stroke="#8073ac" stroke-width="2"/>
	<g>
		<path d="M87 338 a14 14 90 0 1 14 14 V363 h-92 V352 a14 14 90 0 1 14 -14" fill="#b2abd2" stroke="#b2abd2" stroke-width="0"/>
		<path d="M101 363 v11 a14 14 90 0 1 -14 14 H23 a14 14 90 0 1 -14 -14 V363 H92" fill="#d8daeb" stroke="#d8daeb" stroke-width="0"/>
		<rect x="9" y="338" width="92" height="50" fill="none" rx="14" stroke="#8073ac" stroke-width="2"/>
		<line x1="9" y1="363" x2="101" y2="363" stroke="#8073ac" stroke-width="1"/>
		<text x="17" y="355.75" fill="#000000" font-family="Verdana" font-size="12">APPARTIENT</text>
	</g>
	<text x="124" y="252.83" fill="#b35806" font-family="Verdana" font-size="12">1,1</text>
	<text x="106" y="380" fill="#b35806" font-family="Verdana" font-size="12">1,N</text>
</g>

<!-- Association APPARTIENT3 -->
<g>
	<line x1="446" y1="363" x2="321" y2="363" stroke="#8073ac" stroke-width="2"/>
	<line x1="188" y1="363" x2="321" y2="363" stroke="#8073ac" stroke-width="2"/>
	<g>
		<path d="M353 338 a14 14 90 0 1 14 14 V363 h-92 V352 a14 14 90 0 1 14 -14" fill="#b2abd2" stroke="#b2abd2" stroke-width="0"/>
		<path d="M367 363 v11 a14 14 90 0 1 -14 14 H289 a14 14 90 0 1 -14 -14 V363 H92" fill="#d8daeb" stroke="#d8daeb" stroke-width="0"/>
		<rect x="275" y="338" width="92" height="50" fill="none" rx="14" stroke="#8073ac" stroke-width="2"/>
		<line x1="275" y1="363" x2="367" y2="363" stroke="#8073ac" stroke-width="1"/>
		<text x="283" y="355.75" fill="#000000" font-family="Verdana" font-size="12">APPARTIENT</text>
		<text x="282" y="380.8" fill="#000000" font-family="Verdana" font-size="12">profile_id_2</text>
	</g>
	<text x="372" y="380" fill="#b35806" font-family="Verdana" font-size="12">0,N</text>
	<text x="248" y="380" fill="#b35806" font-family="Verdana" font-size="12">1,1</text>
</g>

<!-- Association RESERVER -->
<g>
	<line x1="446" y1="363" x2="570" y2="363" stroke="#8073ac" stroke-width="2"/>
	<line x1="570" y1="617" x2="570" y2="363" stroke="#8073ac" stroke-width="2"/>
	<g>
		<path d="M596 338 a14 14 90 0 1 14 14 V363 h-80 V352 a14 14 90 0 1 14 -14" fill="#b2abd2" stroke="#b2abd2" stroke-width="0"/>
		<path d="M610 363 v11 a14 14 90 0 1 -14 14 H544 a14 14 90 0 1 -14 -14 V363 H80" fill="#d8daeb" stroke="#d8daeb" stroke-width="0"/>
		<rect x="530" y="338" width="80" height="50" fill="none" rx="14" stroke="#8073ac" stroke-width="2"/>
		<line x1="530" y1="363" x2="610" y2="363" stroke="#8073ac" stroke-width="1"/>
		<text x="538" y="355.75" fill="#000000" font-family="Verdana" font-size="12">RESERVER</text>
	</g>
	<text x="498" y="380" fill="#b35806" font-family="Verdana" font-size="12">0,N</text>
	<text x="575" y="482" fill="#b35806" font-family="Verdana" font-size="12">1,N</text>
</g>

<!-- Association APPARTIENT2 -->
<g>
	<line x1="446" y1="363" x2="188" y2="617" stroke="#8073ac" stroke-width="2"/>
	<line x1="188" y1="363" x2="188" y2="617" stroke="#8073ac" stroke-width="2"/>
	<g>
		<path d="M220 592 a14 14 90 0 1 14 14 V617 h-92 V606 a14 14 90 0 1 14 -14" fill="#b2abd2" stroke="#b2abd2" stroke-width="0"/>
		<path d="M234 617 v11 a14 14 90 0 1 -14 14 H156 a14 14 90 0 1 -14 -14 V617 H92" fill="#d8daeb" stroke="#d8daeb" stroke-width="0"/>
		<rect x="142" y="592" width="92" height="50" fill="none" rx="14" stroke="#8073ac" stroke-width="2"/>
		<line x1="142" y1="617" x2="234" y2="617" stroke="#8073ac" stroke-width="1"/>
		<text x="150" y="609.75" fill="#000000" font-family="Verdana" font-size="12">APPARTIENT</text>
		<text x="149" y="634.8" fill="#000000" font-family="Verdana" font-size="12">profile_id_1</text>
	</g>
	<text x="372" y="408.26" fill="#b35806" font-family="Verdana" font-size="12">0,N</text>
	<text x="193" y="431" fill="#b35806" font-family="Verdana" font-size="12">1,1</text>
</g>

<!-- Association AVOIR -->
<g>
	<line x1="446" y1="363" x2="321" y2="617" stroke="#8073ac" stroke-width="2"/>
	<line x1="321" y1="769" x2="321" y2="617" stroke="#8073ac" stroke-width="2"/>
	<g>
		<path d="M334 592 a14 14 90 0 1 14 14 V617 h-54 V606 a14 14 90 0 1 14 -14" fill="#b2abd2" stroke="#b2abd2" stroke-width="0"/>
		<path d="M348 617 v11 a14 14 90 0 1 -14 14 H308 a14 14 90 0 1 -14 -14 V617 H54" fill="#d8daeb" stroke="#d8daeb" stroke-width="0"/>
		<rect x="294" y="592" width="54" height="50" fill="none" rx="14" stroke="#8073ac" stroke-width="2"/>
		<line x1="294" y1="617" x2="348" y2="617" stroke="#8073ac" stroke-width="1"/>
		<text x="301" y="609.75" fill="#000000" font-family="Verdana" font-size="12">AVOIR</text>
	</g>
	<text x="372" y="454.35" fill="#b35806" font-family="Verdana" font-size="12">0,N</text>
	<text x="326" y="727" fill="#b35806" font-family="Verdana" font-size="12">0,N</text>
</g>

<!-- Association CREER2 -->
<g>
	<line x1="446" y1="363" x2="446" y2="617" stroke="#8073ac" stroke-width="2"/>
	<line x1="570" y1="617" x2="446" y2="617" stroke="#8073ac" stroke-width="2"/>
	<g>
		<path d="M460 592 a14 14 90 0 1 14 14 V617 h-56 V606 a14 14 90 0 1 14 -14" fill="#b2abd2" stroke="#b2abd2" stroke-width="0"/>
		<path d="M474 617 v11 a14 14 90 0 1 -14 14 H432 a14 14 90 0 1 -14 -14 V617 H56" fill="#d8daeb" stroke="#d8daeb" stroke-width="0"/>
		<rect x="418" y="592" width="56" height="50" fill="none" rx="14" stroke="#8073ac" stroke-width="2"/>
		<line x1="418" y1="617" x2="474" y2="617" stroke="#8073ac" stroke-width="1"/>
		<text x="426" y="609.75" fill="#000000" font-family="Verdana" font-size="12">CREER</text>
	</g>
	<text x="451" y="482" fill="#b35806" font-family="Verdana" font-size="12">0,N</text>
	<text x="486" y="634" fill="#b35806" font-family="Verdana" font-size="12">1,1</text>
</g>

<!-- Entity USER -->
<g>
	<g>
		<rect x="406" y="9" width="80" height="25" fill="#fdb863" stroke="none" stroke-width="0" opacity="1"/>
		<rect x="406" y="34" width="80" height="127" fill="#fee0b6" stroke="none" stroke-width="0" opacity="1"/>
		<rect x="406" y="9" width="80" height="152" fill="none" stroke="#e08214" stroke-width="2" opacity="1"/>
		<line x1="406" y1="34" x2="486" y2="34" stroke="#e08214" stroke-width="1"/>
	</g>
	<text x="429" y="26.75" fill="#000000" font-family="Verdana" font-size="12">USER</text>
	<text x="411" y="51.8" fill="#000000" font-family="Verdana" font-size="12">id</text>
	<line x1="411" y1="54" x2="423" y2="54" stroke="#000000" stroke-width="1"/>
	<text x="411" y="68.8" fill="#000000" font-family="Verdana" font-size="12">mail</text>
	<text x="411" y="85.8" fill="#000000" font-family="Verdana" font-size="12">password</text>
	<text x="411" y="102.8" fill="#000000" font-family="Verdana" font-size="12">created_at</text>
	<text x="411" y="119.8" fill="#000000" font-family="Verdana" font-size="12">disabled_at</text>
	<text x="411" y="136.8" fill="#000000" font-family="Verdana" font-size="12">deleted_at</text>
	<text x="411" y="153.8" fill="#000000" font-family="Verdana" font-size="12">verified_at</text>
</g>

<!-- Entity MESSAGE -->
<g>
	<g>
		<rect x="150" y="152" width="76" height="25" fill="#fdb863" stroke="none" stroke-width="0" opacity="1"/>
		<rect x="150" y="177" width="76" height="93" fill="#fee0b6" stroke="none" stroke-width="0" opacity="1"/>
		<rect x="150" y="152" width="76" height="118" fill="none" stroke="#e08214" stroke-width="2" opacity="1"/>
		<line x1="150" y1="177" x2="226" y2="177" stroke="#e08214" stroke-width="1"/>
	</g>
	<text x="158" y="169.75" fill="#000000" font-family="Verdana" font-size="12">MESSAGE</text>
	<text x="155" y="194.8" fill="#000000" font-family="Verdana" font-size="12">id</text>
	<line x1="155" y1="197" x2="167" y2="197" stroke="#000000" stroke-width="1"/>
	<text x="155" y="211.8" fill="#000000" font-family="Verdana" font-size="12">content</text>
	<text x="155" y="228.8" fill="#000000" font-family="Verdana" font-size="12">created_at</text>
	<text x="155" y="245.8" fill="#000000" font-family="Verdana" font-size="12">change_at</text>
	<text x="155" y="262.8" fill="#000000" font-family="Verdana" font-size="12">deleted_at</text>
</g>

<!-- Entity MATCH -->
<g>
	<g>
		<rect x="648" y="152" width="84" height="25" fill="#fdb863" stroke="none" stroke-width="0" opacity="1"/>
		<rect x="648" y="177" width="84" height="93" fill="#fee0b6" stroke="none" stroke-width="0" opacity="1"/>
		<rect x="648" y="152" width="84" height="118" fill="none" stroke="#e08214" stroke-width="2" opacity="1"/>
		<line x1="648" y1="177" x2="732" y2="177" stroke="#e08214" stroke-width="1"/>
	</g>
	<text x="668" y="169.75" fill="#000000" font-family="Verdana" font-size="12">MATCH</text>
	<text x="653" y="194.8" fill="#000000" font-family="Verdana" font-size="12">id</text>
	<line x1="653" y1="197" x2="665" y2="197" stroke="#000000" stroke-width="1"/>
	<text x="653" y="211.8" fill="#000000" font-family="Verdana" font-size="12">profile_id_1</text>
	<text x="653" y="228.8" fill="#000000" font-family="Verdana" font-size="12">profile_id_2</text>
	<text x="653" y="245.8" fill="#000000" font-family="Verdana" font-size="12">status</text>
	<text x="653" y="262.8" fill="#000000" font-family="Verdana" font-size="12">created_at</text>
</g>

<!-- Entity CONVERSATION -->
<g>
	<g>
		<rect x="133" y="312" width="110" height="25" fill="#fdb863" stroke="none" stroke-width="0" opacity="1"/>
		<rect x="133" y="337" width="110" height="77" fill="#fee0b6" stroke="none" stroke-width="0" opacity="1"/>
		<rect x="133" y="312" width="110" height="102" fill="none" stroke="#e08214" stroke-width="2" opacity="1"/>
		<line x1="133" y1="337" x2="243" y2="337" stroke="#e08214" stroke-width="1"/>
	</g>
	<text x="139" y="329.75" fill="#000000" font-family="Verdana" font-size="12">CONVERSATION</text>
	<text x="138" y="354.8" fill="#000000" font-family="Verdana" font-size="12">id</text>
	<line x1="138" y1="357" x2="150" y2="357" stroke="#000000" stroke-width="1"/>
	<text x="138" y="371.8" fill="#000000" font-family="Verdana" font-size="12">created_at</text>
	<text x="138" y="388.8" fill="#000000" font-family="Verdana" font-size="12">profile_id_1</text>
	<text x="138" y="405.8" fill="#000000" font-family="Verdana" font-size="12">profile_id_2</text>
</g>

<!-- Entity PROFILE -->
<g>
	<g>
		<rect x="399" y="261" width="94" height="25" fill="#fdb863" stroke="none" stroke-width="0" opacity="1"/>
		<rect x="399" y="286" width="94" height="179" fill="#fee0b6" stroke="none" stroke-width="0" opacity="1"/>
		<rect x="399" y="261" width="94" height="204" fill="none" stroke="#e08214" stroke-width="2" opacity="1"/>
		<line x1="399" y1="286" x2="493" y2="286" stroke="#e08214" stroke-width="1"/>
	</g>
	<text x="420" y="278.75" fill="#000000" font-family="Verdana" font-size="12">PROFILE</text>
	<text x="404" y="303.8" fill="#000000" font-family="Verdana" font-size="12">id</text>
	<line x1="404" y1="306" x2="416" y2="306" stroke="#000000" stroke-width="1"/>
	<text x="404" y="320.8" fill="#000000" font-family="Verdana" font-size="12">pseudo</text>
	<text x="404" y="337.8" fill="#000000" font-family="Verdana" font-size="12">age</text>
	<text x="404" y="354.8" fill="#000000" font-family="Verdana" font-size="12">gender</text>
	<text x="404" y="371.8" fill="#000000" font-family="Verdana" font-size="12">looking_for</text>
	<text x="404" y="388.8" fill="#000000" font-family="Verdana" font-size="12">city</text>
	<text x="404" y="405.8" fill="#000000" font-family="Verdana" font-size="12">description</text>
	<text x="404" y="422.8" fill="#000000" font-family="Verdana" font-size="12">interests</text>
	<text x="404" y="439.8" fill="#000000" font-family="Verdana" font-size="12">profile_image</text>
	<text x="404" y="456.8" fill="#000000" font-family="Verdana" font-size="12">last_online</text>
</g>

<!-- Entity EVENT -->
<g>
	<g>
		<rect x="512" y="490" width="116" height="25" fill="#fdb863" stroke="none" stroke-width="0" opacity="1"/>
		<rect x="512" y="515" width="116" height="229" fill="#fee0b6" stroke="none" stroke-width="0" opacity="1"/>
		<rect x="512" y="490" width="116" height="254" fill="none" stroke="#e08214" stroke-width="2" opacity="1"/>
		<line x1="512" y1="515" x2="628" y2="515" stroke="#e08214" stroke-width="1"/>
	</g>
	<text x="550" y="507.75" fill="#000000" font-family="Verdana" font-size="12">EVENT</text>
	<text x="517" y="532.8" fill="#000000" font-family="Verdana" font-size="12">id</text>
	<line x1="517" y1="535" x2="529" y2="535" stroke="#000000" stroke-width="1"/>
	<text x="517" y="549.8" fill="#000000" font-family="Verdana" font-size="12">title</text>
	<text x="517" y="566.8" fill="#000000" font-family="Verdana" font-size="12">tag</text>
	<text x="517" y="583.8" fill="#000000" font-family="Verdana" font-size="12">description</text>
	<text x="517" y="600.8" fill="#000000" font-family="Verdana" font-size="12">date</text>
	<text x="517" y="617.8" fill="#000000" font-family="Verdana" font-size="12">time</text>
	<text x="517" y="634.8" fill="#000000" font-family="Verdana" font-size="12">street</text>
	<text x="517" y="651.8" fill="#000000" font-family="Verdana" font-size="12">city</text>
	<text x="517" y="668.8" fill="#000000" font-family="Verdana" font-size="12">postal_code</text>
	<text x="517" y="685.8" fill="#000000" font-family="Verdana" font-size="12">thumbnail_image</text>
	<text x="517" y="702.8" fill="#000000" font-family="Verdana" font-size="12">full_image</text>
	<text x="517" y="719.8" fill="#000000" font-family="Verdana" font-size="12">max_participant</text>
	<text x="517" y="736.8" fill="#000000" font-family="Verdana" font-size="12">status</text>
</g>

<!-- Entity INTEREST -->
<g>
	<g>
		<rect x="285" y="735" width="72" height="25" fill="#fdb863" stroke="none" stroke-width="0" opacity="1"/>
		<rect x="285" y="760" width="72" height="43" fill="#fee0b6" stroke="none" stroke-width="0" opacity="1"/>
		<rect x="285" y="735" width="72" height="68" fill="none" stroke="#e08214" stroke-width="2" opacity="1"/>
		<line x1="285" y1="760" x2="357" y2="760" stroke="#e08214" stroke-width="1"/>
	</g>
	<text x="290" y="752.75" fill="#000000" font-family="Verdana" font-size="12">INTEREST</text>
	<text x="290" y="777.8" fill="#000000" font-family="Verdana" font-size="12">id</text>
	<line x1="290" y1="780" x2="302" y2="780" stroke="#000000" stroke-width="1"/>
	<text x="290" y="794.8" fill="#000000" font-family="Verdana" font-size="12">name</text>
</g>
</svg>