<?xml version="1.0" encoding="utf-8"?>
<!-- Generated by Mocodo 4.2.12 -->
<svg width="720" height="694" viewBox="0 0 720 694" xmlns="http://www.w3.org/2000/svg">
<rect x="0" y="0" width="720" height="694" fill="#f7f7f7" stroke="none" stroke-width="0"/>

<!-- Association AVOIR -->
<g>
	<line x1="312" y1="263" x2="312" y2="60" stroke="#8073ac" stroke-width="2"/>
	<line x1="186" y1="60" x2="312" y2="60" stroke="#8073ac" stroke-width="2"/>
	<g>
		<path d="M325 35 a14 14 90 0 1 14 14 V60 h-54 V49 a14 14 90 0 1 14 -14" fill="#b2abd2" stroke="#b2abd2" stroke-width="0"/>
		<path d="M339 60 v11 a14 14 90 0 1 -14 14 H299 a14 14 90 0 1 -14 -14 V60 H54" fill="#d8daeb" stroke="#d8daeb" stroke-width="0"/>
		<rect x="285" y="35" width="54" height="50" fill="none" rx="14" stroke="#8073ac" stroke-width="2"/>
		<line x1="285" y1="60" x2="339" y2="60" stroke="#8073ac" stroke-width="1"/>
		<text x="292" y="52.75" fill="#000000" font-family="Verdana" font-size="12">AVOIR</text>
	</g>
	<text x="285" y="102" fill="#b35806" font-family="Verdana" font-size="12">0,N</text>
	<text x="227" y="77" fill="#b35806" font-family="Verdana" font-size="12">0,N</text>
</g>

<!-- Association ETRE -->
<g>
	<line x1="312" y1="263" x2="420" y2="60" stroke="#8073ac" stroke-width="2"/>
	<line x1="531" y1="60" x2="420" y2="60" stroke="#8073ac" stroke-width="2"/>
	<g>
		<path d="M429 35 a14 14 90 0 1 14 14 V60 h-46 V49 a14 14 90 0 1 14 -14" fill="#b2abd2" stroke="#b2abd2" stroke-width="0"/>
		<path d="M443 60 v11 a14 14 90 0 1 -14 14 H411 a14 14 90 0 1 -14 -14 V60 H46" fill="#d8daeb" stroke="#d8daeb" stroke-width="0"/>
		<rect x="397" y="35" width="46" height="50" fill="none" rx="14" stroke="#8073ac" stroke-width="2"/>
		<line x1="397" y1="60" x2="443" y2="60" stroke="#8073ac" stroke-width="1"/>
		<text x="404" y="52.75" fill="#000000" font-family="Verdana" font-size="12">ETRE</text>
	</g>
	<text x="364" y="187.51" fill="#b35806" font-family="Verdana" font-size="12">0,N</text>
	<text x="448" y="77" fill="#b35806" font-family="Verdana" font-size="12">N,N</text>
</g>

<!-- Association APPARTIENT1 -->
<g>
	<line x1="531" y1="263" x2="665" y2="60" stroke="#8073ac" stroke-width="2"/>
	<line x1="531" y1="60" x2="665" y2="60" stroke="#8073ac" stroke-width="2"/>
	<g>
		<path d="M697 35 a14 14 90 0 1 14 14 V60 h-92 V49 a14 14 90 0 1 14 -14" fill="#b2abd2" stroke="#b2abd2" stroke-width="0"/>
		<path d="M711 60 v11 a14 14 90 0 1 -14 14 H633 a14 14 90 0 1 -14 -14 V60 H92" fill="#d8daeb" stroke="#d8daeb" stroke-width="0"/>
		<rect x="619" y="35" width="92" height="50" fill="none" rx="14" stroke="#8073ac" stroke-width="2"/>
		<line x1="619" y1="60" x2="711" y2="60" stroke="#8073ac" stroke-width="1"/>
		<text x="627" y="52.75" fill="#000000" font-family="Verdana" font-size="12">APPARTIENT</text>
	</g>
	<text x="574" y="217.37" fill="#b35806" font-family="Verdana" font-size="12">1,1</text>
	<text x="591" y="77" fill="#b35806" font-family="Verdana" font-size="12">1,N</text>
</g>

<!-- Association APPARTIENT -->
<g>
	<line x1="67" y1="263" x2="186" y2="263" stroke="#8073ac" stroke-width="2"/>
	<line x1="312" y1="263" x2="186" y2="263" stroke="#8073ac" stroke-width="2"/>
	<g>
		<path d="M218 238 a14 14 90 0 1 14 14 V263 h-92 V252 a14 14 90 0 1 14 -14" fill="#b2abd2" stroke="#b2abd2" stroke-width="0"/>
		<path d="M232 263 v11 a14 14 90 0 1 -14 14 H154 a14 14 90 0 1 -14 -14 V263 H92" fill="#d8daeb" stroke="#d8daeb" stroke-width="0"/>
		<rect x="140" y="238" width="92" height="50" fill="none" rx="14" stroke="#8073ac" stroke-width="2"/>
		<line x1="140" y1="263" x2="232" y2="263" stroke="#8073ac" stroke-width="1"/>
		<text x="148" y="255.75" fill="#000000" font-family="Verdana" font-size="12">APPARTIENT</text>
	</g>
	<text x="104" y="280" fill="#b35806" font-family="Verdana" font-size="12">1,1</text>
	<text x="238" y="255" fill="#b35806" font-family="Verdana" font-size="12">0,N</text>
</g>

<!-- Association CREER -->
<g>
	<line x1="312" y1="263" x2="420" y2="263" stroke="#8073ac" stroke-width="2"/>
	<line x1="531" y1="263" x2="420" y2="263" stroke="#8073ac" stroke-width="2"/>
	<g>
		<path d="M434 238 a14 14 90 0 1 14 14 V263 h-56 V252 a14 14 90 0 1 14 -14" fill="#b2abd2" stroke="#b2abd2" stroke-width="0"/>
		<path d="M448 263 v11 a14 14 90 0 1 -14 14 H406 a14 14 90 0 1 -14 -14 V263 H56" fill="#d8daeb" stroke="#d8daeb" stroke-width="0"/>
		<rect x="392" y="238" width="56" height="50" fill="none" rx="14" stroke="#8073ac" stroke-width="2"/>
		<line x1="392" y1="263" x2="448" y2="263" stroke="#8073ac" stroke-width="1"/>
		<text x="400" y="255.75" fill="#000000" font-family="Verdana" font-size="12">CREER</text>
	</g>
	<text x="364" y="280" fill="#b35806" font-family="Verdana" font-size="12">1,1</text>
	<text x="467" y="280" fill="#b35806" font-family="Verdana" font-size="12">1,1</text>
</g>

<!-- Association CREER2 -->
<g>
	<line x1="312" y1="263" x2="186" y2="483" stroke="#8073ac" stroke-width="2"/>
	<line x1="67" y1="483" x2="186" y2="483" stroke="#8073ac" stroke-width="2"/>
	<g>
		<path d="M200 458 a14 14 90 0 1 14 14 V483 h-56 V472 a14 14 90 0 1 14 -14" fill="#b2abd2" stroke="#b2abd2" stroke-width="0"/>
		<path d="M214 483 v11 a14 14 90 0 1 -14 14 H172 a14 14 90 0 1 -14 -14 V483 H56" fill="#d8daeb" stroke="#d8daeb" stroke-width="0"/>
		<rect x="158" y="458" width="56" height="50" fill="none" rx="14" stroke="#8073ac" stroke-width="2"/>
		<line x1="158" y1="483" x2="214" y2="483" stroke="#8073ac" stroke-width="1"/>
		<text x="166" y="475.75" fill="#000000" font-family="Verdana" font-size="12">CREER</text>
	</g>
	<text x="238" y="341.51" fill="#b35806" font-family="Verdana" font-size="12">0,N</text>
	<text x="130" y="475" fill="#b35806" font-family="Verdana" font-size="12">1,1</text>
</g>

<!-- Association LIKE -->
<g>
	<line x1="312" y1="263" x2="312" y2="483" stroke="#8073ac" stroke-width="2"/>
	<line x1="420" y1="483" x2="312" y2="483" stroke="#8073ac" stroke-width="2"/>
	<g>
		<path d="M320 458 a14 14 90 0 1 14 14 V483 h-44 V472 a14 14 90 0 1 14 -14" fill="#b2abd2" stroke="#b2abd2" stroke-width="0"/>
		<path d="M334 483 v11 a14 14 90 0 1 -14 14 H304 a14 14 90 0 1 -14 -14 V483 H44" fill="#d8daeb" stroke="#d8daeb" stroke-width="0"/>
		<rect x="290" y="458" width="44" height="50" fill="none" rx="14" stroke="#8073ac" stroke-width="2"/>
		<line x1="290" y1="483" x2="334" y2="483" stroke="#8073ac" stroke-width="1"/>
		<text x="298" y="475.75" fill="#000000" font-family="Verdana" font-size="12">LIKE</text>
	</g>
	<text x="317" y="433" fill="#b35806" font-family="Verdana" font-size="12">0,N</text>
	<text x="355" y="500" fill="#b35806" font-family="Verdana" font-size="12">1,N</text>
</g>

<!-- Association RESERVER -->
<g>
	<line x1="312" y1="263" x2="186" y2="660" stroke="#8073ac" stroke-width="2"/>
	<line x1="67" y1="483" x2="186" y2="660" stroke="#8073ac" stroke-width="2"/>
	<g>
		<path d="M212 635 a14 14 90 0 1 14 14 V660 h-80 V649 a14 14 90 0 1 14 -14" fill="#b2abd2" stroke="#b2abd2" stroke-width="0"/>
		<path d="M226 660 v11 a14 14 90 0 1 -14 14 H160 a14 14 90 0 1 -14 -14 V660 H80" fill="#d8daeb" stroke="#d8daeb" stroke-width="0"/>
		<rect x="146" y="635" width="80" height="50" fill="none" rx="14" stroke="#8073ac" stroke-width="2"/>
		<line x1="146" y1="660" x2="226" y2="660" stroke="#8073ac" stroke-width="1"/>
		<text x="154" y="652.75" fill="#000000" font-family="Verdana" font-size="12">RESERVER</text>
	</g>
	<text x="238" y="405.56" fill="#b35806" font-family="Verdana" font-size="12">0,N</text>
	<text x="130" y="566.42" fill="#b35806" font-family="Verdana" font-size="12">1,N</text>
</g>

<!-- Entity INTEREST -->
<g>
	<g>
		<rect x="150" y="26" width="72" height="25" fill="#fdb863" stroke="none" stroke-width="0" opacity="1"/>
		<rect x="150" y="51" width="72" height="43" fill="#fee0b6" stroke="none" stroke-width="0" opacity="1"/>
		<rect x="150" y="26" width="72" height="68" fill="none" stroke="#e08214" stroke-width="2" opacity="1"/>
		<line x1="150" y1="51" x2="222" y2="51" stroke="#e08214" stroke-width="1"/>
	</g>
	<text x="155" y="43.75" fill="#000000" font-family="Verdana" font-size="12">INTEREST</text>
	<text x="155" y="68.8" fill="#000000" font-family="Verdana" font-size="12">id</text>
	<line x1="155" y1="71" x2="167" y2="71" stroke="#000000" stroke-width="1"/>
	<text x="155" y="85.8" fill="#000000" font-family="Verdana" font-size="12">name</text>
</g>

<!-- Entity CONVERSATION -->
<g>
	<g>
		<rect x="476" y="9" width="110" height="25" fill="#fdb863" stroke="none" stroke-width="0" opacity="1"/>
		<rect x="476" y="34" width="110" height="77" fill="#fee0b6" stroke="none" stroke-width="0" opacity="1"/>
		<rect x="476" y="9" width="110" height="102" fill="none" stroke="#e08214" stroke-width="2" opacity="1"/>
		<line x1="476" y1="34" x2="586" y2="34" stroke="#e08214" stroke-width="1"/>
	</g>
	<text x="482" y="26.75" fill="#000000" font-family="Verdana" font-size="12">CONVERSATION</text>
	<text x="481" y="51.8" fill="#000000" font-family="Verdana" font-size="12">id</text>
	<line x1="481" y1="54" x2="493" y2="54" stroke="#000000" stroke-width="1"/>
	<text x="481" y="68.8" fill="#000000" font-family="Verdana" font-size="12">created_at</text>
	<text x="481" y="85.8" fill="#000000" font-family="Verdana" font-size="12">updated_at</text>
	<text x="481" y="102.8" fill="#000000" font-family="Verdana" font-size="12">deleted_at</text>
</g>

<!-- Entity PICTURE -->
<g>
	<g>
		<rect x="35" y="204" width="64" height="25" fill="#fdb863" stroke="none" stroke-width="0" opacity="1"/>
		<rect x="35" y="229" width="64" height="93" fill="#fee0b6" stroke="none" stroke-width="0" opacity="1"/>
		<rect x="35" y="204" width="64" height="118" fill="none" stroke="#e08214" stroke-width="2" opacity="1"/>
		<line x1="35" y1="229" x2="99" y2="229" stroke="#e08214" stroke-width="1"/>
	</g>
	<text x="40" y="221.75" fill="#000000" font-family="Verdana" font-size="12">PICTURE</text>
	<text x="40" y="246.8" fill="#000000" font-family="Verdana" font-size="12">id</text>
	<line x1="40" y1="249" x2="52" y2="249" stroke="#000000" stroke-width="1"/>
	<text x="40" y="263.8" fill="#000000" font-family="Verdana" font-size="12">first</text>
	<text x="40" y="280.8" fill="#000000" font-family="Verdana" font-size="12">second</text>
	<text x="40" y="297.8" fill="#000000" font-family="Verdana" font-size="12">third</text>
	<text x="40" y="314.8" fill="#000000" font-family="Verdana" font-size="12">fourth</text>
</g>

<!-- Entity PROFILE -->
<g>
	<g>
		<rect x="265" y="110" width="94" height="25" fill="#fdb863" stroke="none" stroke-width="0" opacity="1"/>
		<rect x="265" y="135" width="94" height="281" fill="#fee0b6" stroke="none" stroke-width="0" opacity="1"/>
		<rect x="265" y="110" width="94" height="306" fill="none" stroke="#e08214" stroke-width="2" opacity="1"/>
		<line x1="265" y1="135" x2="359" y2="135" stroke="#e08214" stroke-width="1"/>
	</g>
	<text x="286" y="127.75" fill="#000000" font-family="Verdana" font-size="12">PROFILE</text>
	<text x="270" y="152.8" fill="#000000" font-family="Verdana" font-size="12">id</text>
	<line x1="270" y1="155" x2="282" y2="155" stroke="#000000" stroke-width="1"/>
	<text x="270" y="169.8" fill="#000000" font-family="Verdana" font-size="12">mail</text>
	<text x="270" y="186.8" fill="#000000" font-family="Verdana" font-size="12">password</text>
	<text x="270" y="203.8" fill="#000000" font-family="Verdana" font-size="12">pseudo</text>
	<text x="270" y="220.8" fill="#000000" font-family="Verdana" font-size="12">age</text>
	<text x="270" y="237.8" fill="#000000" font-family="Verdana" font-size="12">gender</text>
	<text x="270" y="254.8" fill="#000000" font-family="Verdana" font-size="12">looking_for</text>
	<text x="270" y="271.8" fill="#000000" font-family="Verdana" font-size="12">city</text>
	<text x="270" y="288.8" fill="#000000" font-family="Verdana" font-size="12">description</text>
	<text x="270" y="305.8" fill="#000000" font-family="Verdana" font-size="12">interests</text>
	<text x="270" y="322.8" fill="#000000" font-family="Verdana" font-size="12">profile_image</text>
	<text x="270" y="339.8" fill="#000000" font-family="Verdana" font-size="12">last_online</text>
	<text x="270" y="356.8" fill="#000000" font-family="Verdana" font-size="12">created_at</text>
	<text x="270" y="373.8" fill="#000000" font-family="Verdana" font-size="12">disabled_at</text>
	<text x="270" y="390.8" fill="#000000" font-family="Verdana" font-size="12">deleted_at</text>
	<text x="270" y="407.8" fill="#000000" font-family="Verdana" font-size="12">verified_at</text>
</g>

<!-- Entity MESSAGE -->
<g>
	<g>
		<rect x="493" y="204" width="76" height="25" fill="#fdb863" stroke="none" stroke-width="0" opacity="1"/>
		<rect x="493" y="229" width="76" height="93" fill="#fee0b6" stroke="none" stroke-width="0" opacity="1"/>
		<rect x="493" y="204" width="76" height="118" fill="none" stroke="#e08214" stroke-width="2" opacity="1"/>
		<line x1="493" y1="229" x2="569" y2="229" stroke="#e08214" stroke-width="1"/>
	</g>
	<text x="501" y="221.75" fill="#000000" font-family="Verdana" font-size="12">MESSAGE</text>
	<text x="498" y="246.8" fill="#000000" font-family="Verdana" font-size="12">id</text>
	<line x1="498" y1="249" x2="510" y2="249" stroke="#000000" stroke-width="1"/>
	<text x="498" y="263.8" fill="#000000" font-family="Verdana" font-size="12">content</text>
	<text x="498" y="280.8" fill="#000000" font-family="Verdana" font-size="12">created_at</text>
	<text x="498" y="297.8" fill="#000000" font-family="Verdana" font-size="12">change_at</text>
	<text x="498" y="314.8" fill="#000000" font-family="Verdana" font-size="12">deleted_at</text>
</g>

<!-- Entity EVENT -->
<g>
	<g>
		<rect x="9" y="356" width="116" height="25" fill="#fdb863" stroke="none" stroke-width="0" opacity="1"/>
		<rect x="9" y="381" width="116" height="229" fill="#fee0b6" stroke="none" stroke-width="0" opacity="1"/>
		<rect x="9" y="356" width="116" height="254" fill="none" stroke="#e08214" stroke-width="2" opacity="1"/>
		<line x1="9" y1="381" x2="125" y2="381" stroke="#e08214" stroke-width="1"/>
	</g>
	<text x="47" y="373.75" fill="#000000" font-family="Verdana" font-size="12">EVENT</text>
	<text x="14" y="398.8" fill="#000000" font-family="Verdana" font-size="12">id</text>
	<line x1="14" y1="401" x2="26" y2="401" stroke="#000000" stroke-width="1"/>
	<text x="14" y="415.8" fill="#000000" font-family="Verdana" font-size="12">title</text>
	<text x="14" y="432.8" fill="#000000" font-family="Verdana" font-size="12">tag</text>
	<text x="14" y="449.8" fill="#000000" font-family="Verdana" font-size="12">description</text>
	<text x="14" y="466.8" fill="#000000" font-family="Verdana" font-size="12">date</text>
	<text x="14" y="483.8" fill="#000000" font-family="Verdana" font-size="12">time</text>
	<text x="14" y="500.8" fill="#000000" font-family="Verdana" font-size="12">street</text>
	<text x="14" y="517.8" fill="#000000" font-family="Verdana" font-size="12">city</text>
	<text x="14" y="534.8" fill="#000000" font-family="Verdana" font-size="12">postal_code</text>
	<text x="14" y="551.8" fill="#000000" font-family="Verdana" font-size="12">thumbnail_image</text>
	<text x="14" y="568.8" fill="#000000" font-family="Verdana" font-size="12">full_image</text>
	<text x="14" y="585.8" fill="#000000" font-family="Verdana" font-size="12">max_participant</text>
	<text x="14" y="602.8" fill="#000000" font-family="Verdana" font-size="12">status</text>
</g>

<!-- Entity MATCH -->
<g>
	<g>
		<rect x="382" y="441" width="76" height="25" fill="#fdb863" stroke="none" stroke-width="0" opacity="1"/>
		<rect x="382" y="466" width="76" height="59" fill="#fee0b6" stroke="none" stroke-width="0" opacity="1"/>
		<rect x="382" y="441" width="76" height="84" fill="none" stroke="#e08214" stroke-width="2" opacity="1"/>
		<line x1="382" y1="466" x2="458" y2="466" stroke="#e08214" stroke-width="1"/>
	</g>
	<text x="398" y="458.75" fill="#000000" font-family="Verdana" font-size="12">MATCH</text>
	<text x="387" y="483.8" fill="#000000" font-family="Verdana" font-size="12">id</text>
	<line x1="387" y1="486" x2="399" y2="486" stroke="#000000" stroke-width="1"/>
	<text x="387" y="500.8" fill="#000000" font-family="Verdana" font-size="12">created_at</text>
	<text x="387" y="517.8" fill="#000000" font-family="Verdana" font-size="12">status</text>
</g>
</svg>