<?xml version="1.0" encoding="utf-8"?>
<!-- Generated by Mocodo 4.2.12 -->
<svg width="624" height="794" viewBox="0 0 624 794" xmlns="http://www.w3.org/2000/svg">
<rect x="0" y="0" width="624" height="794" fill="#f7f7f7" stroke="none" stroke-width="0"/>

<!-- Association RESERVER -->
<g>
	<line x1="303" y1="440" x2="185" y2="263" stroke="#8073ac" stroke-width="2"/>
	<line x1="67" y1="440" x2="185" y2="263" stroke="#8073ac" stroke-width="2"/>
	<g>
		<path d="M211 238 a14 14 90 0 1 14 14 V263 h-80 V252 a14 14 90 0 1 14 -14" fill="#b2abd2" stroke="#b2abd2" stroke-width="0"/>
		<path d="M225 263 v11 a14 14 90 0 1 -14 14 H159 a14 14 90 0 1 -14 -14 V263 H80" fill="#d8daeb" stroke="#d8daeb" stroke-width="0"/>
		<rect x="145" y="238" width="80" height="50" fill="none" rx="14" stroke="#8073ac" stroke-width="2"/>
		<line x1="145" y1="263" x2="225" y2="263" stroke="#8073ac" stroke-width="1"/>
		<text x="153" y="255.75" fill="#000000" font-family="Verdana" font-size="12">RESERVER</text>
	</g>
	<text x="236" y="391.89" fill="#b35806" font-family="Verdana" font-size="12">1,N</text>
	<text x="130" y="364.89" fill="#b35806" font-family="Verdana" font-size="12">1,N</text>
</g>

<!-- Association APPARTIENT -->
<g>
	<line x1="303" y1="440" x2="303" y2="263" stroke="#8073ac" stroke-width="2"/>
	<line x1="303" y1="111" x2="303" y2="263" stroke="#8073ac" stroke-width="2"/>
	<g>
		<path d="M335 238 a14 14 90 0 1 14 14 V263 h-92 V252 a14 14 90 0 1 14 -14" fill="#b2abd2" stroke="#b2abd2" stroke-width="0"/>
		<path d="M349 263 v11 a14 14 90 0 1 -14 14 H271 a14 14 90 0 1 -14 -14 V263 H92" fill="#d8daeb" stroke="#d8daeb" stroke-width="0"/>
		<rect x="257" y="238" width="92" height="50" fill="none" rx="14" stroke="#8073ac" stroke-width="2"/>
		<line x1="257" y1="263" x2="349" y2="263" stroke="#8073ac" stroke-width="1"/>
		<text x="265" y="255.75" fill="#000000" font-family="Verdana" font-size="12">APPARTIENT</text>
	</g>
	<text x="308" y="356" fill="#b35806" font-family="Verdana" font-size="12">1,1</text>
	<text x="308" y="230" fill="#b35806" font-family="Verdana" font-size="12">1,1</text>
</g>

<!-- Association APPARTIENT3 -->
<g>
	<line x1="303" y1="440" x2="427" y2="263" stroke="#8073ac" stroke-width="2"/>
	<line x1="560" y1="440" x2="427" y2="263" stroke="#8073ac" stroke-width="2"/>
	<g>
		<path d="M459 238 a14 14 90 0 1 14 14 V263 h-92 V252 a14 14 90 0 1 14 -14" fill="#b2abd2" stroke="#b2abd2" stroke-width="0"/>
		<path d="M473 263 v11 a14 14 90 0 1 -14 14 H395 a14 14 90 0 1 -14 -14 V263 H92" fill="#d8daeb" stroke="#d8daeb" stroke-width="0"/>
		<rect x="381" y="238" width="92" height="50" fill="none" rx="14" stroke="#8073ac" stroke-width="2"/>
		<line x1="381" y1="263" x2="473" y2="263" stroke="#8073ac" stroke-width="1"/>
		<text x="389" y="255.75" fill="#000000" font-family="Verdana" font-size="12">APPARTIENT</text>
		<text x="388" y="280.8" fill="#000000" font-family="Verdana" font-size="12">user_id_2</text>
	</g>
	<text x="348" y="394.57" fill="#b35806" font-family="Verdana" font-size="12">0,1</text>
	<text x="521.01" y="381" fill="#b35806" font-family="Verdana" font-size="12">1,1</text>
</g>

<!-- Association CREER2 -->
<g>
	<line x1="303" y1="440" x2="185" y2="440" stroke="#8073ac" stroke-width="2"/>
	<line x1="67" y1="440" x2="185" y2="440" stroke="#8073ac" stroke-width="2"/>
	<g>
		<path d="M199 415 a14 14 90 0 1 14 14 V440 h-56 V429 a14 14 90 0 1 14 -14" fill="#b2abd2" stroke="#b2abd2" stroke-width="0"/>
		<path d="M213 440 v11 a14 14 90 0 1 -14 14 H171 a14 14 90 0 1 -14 -14 V440 H56" fill="#d8daeb" stroke="#d8daeb" stroke-width="0"/>
		<rect x="157" y="415" width="56" height="50" fill="none" rx="14" stroke="#8073ac" stroke-width="2"/>
		<line x1="157" y1="440" x2="213" y2="440" stroke="#8073ac" stroke-width="1"/>
		<text x="165" y="432.75" fill="#000000" font-family="Verdana" font-size="12">CREER</text>
	</g>
	<text x="237" y="457" fill="#b35806" font-family="Verdana" font-size="12">1,1</text>
	<text x="130" y="457" fill="#b35806" font-family="Verdana" font-size="12">1,1</text>
</g>

<!-- Association APPARTIENT2 -->
<g>
	<line x1="303" y1="440" x2="427" y2="440" stroke="#8073ac" stroke-width="2"/>
	<line x1="560" y1="440" x2="427" y2="440" stroke="#8073ac" stroke-width="2"/>
	<g>
		<path d="M459 415 a14 14 90 0 1 14 14 V440 h-92 V429 a14 14 90 0 1 14 -14" fill="#b2abd2" stroke="#b2abd2" stroke-width="0"/>
		<path d="M473 440 v11 a14 14 90 0 1 -14 14 H395 a14 14 90 0 1 -14 -14 V440 H92" fill="#d8daeb" stroke="#d8daeb" stroke-width="0"/>
		<rect x="381" y="415" width="92" height="50" fill="none" rx="14" stroke="#8073ac" stroke-width="2"/>
		<line x1="381" y1="440" x2="473" y2="440" stroke="#8073ac" stroke-width="1"/>
		<text x="389" y="432.75" fill="#000000" font-family="Verdana" font-size="12">APPARTIENT</text>
		<text x="388" y="457.8" fill="#000000" font-family="Verdana" font-size="12">user_id_1</text>
	</g>
	<text x="348" y="457" fill="#b35806" font-family="Verdana" font-size="12">0,1</text>
	<text x="479" y="457" fill="#b35806" font-family="Verdana" font-size="12">1,1</text>
</g>

<!-- Association APPARTIENT4 -->
<g>
	<line x1="303" y1="440" x2="67" y2="617" stroke="#8073ac" stroke-width="2"/>
	<line x1="67" y1="726" x2="67" y2="617" stroke="#8073ac" stroke-width="2"/>
	<g>
		<path d="M99 592 a14 14 90 0 1 14 14 V617 h-92 V606 a14 14 90 0 1 14 -14" fill="#b2abd2" stroke="#b2abd2" stroke-width="0"/>
		<path d="M113 617 v11 a14 14 90 0 1 -14 14 H35 a14 14 90 0 1 -14 -14 V617 H92" fill="#d8daeb" stroke="#d8daeb" stroke-width="0"/>
		<rect x="21" y="592" width="92" height="50" fill="none" rx="14" stroke="#8073ac" stroke-width="2"/>
		<line x1="21" y1="617" x2="113" y2="617" stroke="#8073ac" stroke-width="1"/>
		<text x="29" y="609.75" fill="#000000" font-family="Verdana" font-size="12">APPARTIENT</text>
		<text x="28" y="634.8" fill="#000000" font-family="Verdana" font-size="12">user_id_2</text>
	</g>
	<text x="236" y="467.66" fill="#b35806" font-family="Verdana" font-size="12">0,N</text>
	<text x="41" y="659" fill="#b35806" font-family="Verdana" font-size="12">1,1</text>
</g>

<!-- Association CREER1 -->
<g>
	<line x1="303" y1="440" x2="185" y2="617" stroke="#8073ac" stroke-width="2"/>
	<line x1="67" y1="726" x2="185" y2="617" stroke="#8073ac" stroke-width="2"/>
	<g>
		<path d="M209 592 a14 14 90 0 1 14 14 V617 h-76 V606 a14 14 90 0 1 14 -14" fill="#b2abd2" stroke="#b2abd2" stroke-width="0"/>
		<path d="M223 617 v11 a14 14 90 0 1 -14 14 H161 a14 14 90 0 1 -14 -14 V617 H76" fill="#d8daeb" stroke="#d8daeb" stroke-width="0"/>
		<rect x="147" y="592" width="76" height="50" fill="none" rx="14" stroke="#8073ac" stroke-width="2"/>
		<line x1="147" y1="617" x2="223" y2="617" stroke="#8073ac" stroke-width="1"/>
		<text x="165" y="609.75" fill="#000000" font-family="Verdana" font-size="12">CREER</text>
		<text x="154" y="634.8" fill="#000000" font-family="Verdana" font-size="12">user_id_1</text>
	</g>
	<text x="236" y="497.11" fill="#b35806" font-family="Verdana" font-size="12">0,N</text>
	<text x="110" y="701.22" fill="#b35806" font-family="Verdana" font-size="12">1,1</text>
</g>

<!-- Association CREER -->
<g>
	<line x1="303" y1="440" x2="303" y2="617" stroke="#8073ac" stroke-width="2"/>
	<line x1="427" y1="617" x2="303" y2="617" stroke="#8073ac" stroke-width="2"/>
	<g>
		<path d="M317 592 a14 14 90 0 1 14 14 V617 h-56 V606 a14 14 90 0 1 14 -14" fill="#b2abd2" stroke="#b2abd2" stroke-width="0"/>
		<path d="M331 617 v11 a14 14 90 0 1 -14 14 H289 a14 14 90 0 1 -14 -14 V617 H56" fill="#d8daeb" stroke="#d8daeb" stroke-width="0"/>
		<rect x="275" y="592" width="56" height="50" fill="none" rx="14" stroke="#8073ac" stroke-width="2"/>
		<line x1="275" y1="617" x2="331" y2="617" stroke="#8073ac" stroke-width="1"/>
		<text x="283" y="609.75" fill="#000000" font-family="Verdana" font-size="12">CREER</text>
	</g>
	<text x="308" y="533" fill="#b35806" font-family="Verdana" font-size="12">1,1</text>
	<text x="363" y="634" fill="#b35806" font-family="Verdana" font-size="12">1,1</text>
</g>

<!-- Association APPARTIENT1 -->
<g>
	<line x1="427" y1="617" x2="560" y2="617" stroke="#8073ac" stroke-width="2"/>
	<line x1="560" y1="440" x2="560" y2="617" stroke="#8073ac" stroke-width="2"/>
	<g>
		<path d="M592 592 a14 14 90 0 1 14 14 V617 h-92 V606 a14 14 90 0 1 14 -14" fill="#b2abd2" stroke="#b2abd2" stroke-width="0"/>
		<path d="M606 617 v11 a14 14 90 0 1 -14 14 H528 a14 14 90 0 1 -14 -14 V617 H92" fill="#d8daeb" stroke="#d8daeb" stroke-width="0"/>
		<rect x="514" y="592" width="92" height="50" fill="none" rx="14" stroke="#8073ac" stroke-width="2"/>
		<line x1="514" y1="617" x2="606" y2="617" stroke="#8073ac" stroke-width="1"/>
		<text x="522" y="609.75" fill="#000000" font-family="Verdana" font-size="12">APPARTIENT</text>
	</g>
	<text x="470" y="634" fill="#b35806" font-family="Verdana" font-size="12">1,1</text>
	<text x="565" y="508" fill="#b35806" font-family="Verdana" font-size="12">1,N</text>
</g>

<!-- Entity PROFIL -->
<g>
	<g>
		<rect x="256" y="9" width="94" height="25" fill="#fdb863" stroke="none" stroke-width="0" opacity="1"/>
		<rect x="256" y="34" width="94" height="179" fill="#fee0b6" stroke="none" stroke-width="0" opacity="1"/>
		<rect x="256" y="9" width="94" height="204" fill="none" stroke="#e08214" stroke-width="2" opacity="1"/>
		<line x1="256" y1="34" x2="350" y2="34" stroke="#e08214" stroke-width="1"/>
	</g>
	<text x="281" y="26.75" fill="#000000" font-family="Verdana" font-size="12">PROFIL</text>
	<text x="261" y="51.8" fill="#000000" font-family="Verdana" font-size="12">id</text>
	<line x1="261" y1="54" x2="273" y2="54" stroke="#000000" stroke-width="1"/>
	<text x="261" y="68.8" fill="#000000" font-family="Verdana" font-size="12">pseudo</text>
	<text x="261" y="85.8" fill="#000000" font-family="Verdana" font-size="12">age</text>
	<text x="261" y="102.8" fill="#000000" font-family="Verdana" font-size="12">gender</text>
	<text x="261" y="119.8" fill="#000000" font-family="Verdana" font-size="12">looking_for</text>
	<text x="261" y="136.8" fill="#000000" font-family="Verdana" font-size="12">city</text>
	<text x="261" y="153.8" fill="#000000" font-family="Verdana" font-size="12">description</text>
	<text x="261" y="170.8" fill="#000000" font-family="Verdana" font-size="12">interests</text>
	<text x="261" y="187.8" fill="#000000" font-family="Verdana" font-size="12">profile_image</text>
	<text x="261" y="204.8" fill="#000000" font-family="Verdana" font-size="12">last_online</text>
</g>

<!-- Entity EVENT -->
<g>
	<g>
		<rect x="9" y="313" width="116" height="25" fill="#fdb863" stroke="none" stroke-width="0" opacity="1"/>
		<rect x="9" y="338" width="116" height="229" fill="#fee0b6" stroke="none" stroke-width="0" opacity="1"/>
		<rect x="9" y="313" width="116" height="254" fill="none" stroke="#e08214" stroke-width="2" opacity="1"/>
		<line x1="9" y1="338" x2="125" y2="338" stroke="#e08214" stroke-width="1"/>
	</g>
	<text x="47" y="330.75" fill="#000000" font-family="Verdana" font-size="12">EVENT</text>
	<text x="14" y="355.8" fill="#000000" font-family="Verdana" font-size="12">id</text>
	<line x1="14" y1="358" x2="26" y2="358" stroke="#000000" stroke-width="1"/>
	<text x="14" y="372.8" fill="#000000" font-family="Verdana" font-size="12">title</text>
	<text x="14" y="389.8" fill="#000000" font-family="Verdana" font-size="12">tag</text>
	<text x="14" y="406.8" fill="#000000" font-family="Verdana" font-size="12">description</text>
	<text x="14" y="423.8" fill="#000000" font-family="Verdana" font-size="12">date</text>
	<text x="14" y="440.8" fill="#000000" font-family="Verdana" font-size="12">time</text>
	<text x="14" y="457.8" fill="#000000" font-family="Verdana" font-size="12">street</text>
	<text x="14" y="474.8" fill="#000000" font-family="Verdana" font-size="12">city</text>
	<text x="14" y="491.8" fill="#000000" font-family="Verdana" font-size="12">postal_code</text>
	<text x="14" y="508.8" fill="#000000" font-family="Verdana" font-size="12">thumbnail_image</text>
	<text x="14" y="525.8" fill="#000000" font-family="Verdana" font-size="12">full_image</text>
	<text x="14" y="542.8" fill="#000000" font-family="Verdana" font-size="12">max_participant</text>
	<text x="14" y="559.8" fill="#000000" font-family="Verdana" font-size="12">status</text>
</g>

<!-- Entity USER -->
<g>
	<g>
		<rect x="263" y="364" width="80" height="25" fill="#fdb863" stroke="none" stroke-width="0" opacity="1"/>
		<rect x="263" y="389" width="80" height="127" fill="#fee0b6" stroke="none" stroke-width="0" opacity="1"/>
		<rect x="263" y="364" width="80" height="152" fill="none" stroke="#e08214" stroke-width="2" opacity="1"/>
		<line x1="263" y1="389" x2="343" y2="389" stroke="#e08214" stroke-width="1"/>
	</g>
	<text x="286" y="381.75" fill="#000000" font-family="Verdana" font-size="12">USER</text>
	<text x="268" y="406.8" fill="#000000" font-family="Verdana" font-size="12">id</text>
	<line x1="268" y1="409" x2="280" y2="409" stroke="#000000" stroke-width="1"/>
	<text x="268" y="423.8" fill="#000000" font-family="Verdana" font-size="12">mail</text>
	<text x="268" y="440.8" fill="#000000" font-family="Verdana" font-size="12">password</text>
	<text x="268" y="457.8" fill="#000000" font-family="Verdana" font-size="12">created_at</text>
	<text x="268" y="474.8" fill="#000000" font-family="Verdana" font-size="12">disabled_at</text>
	<text x="268" y="491.8" fill="#000000" font-family="Verdana" font-size="12">deleted_at</text>
	<text x="268" y="508.8" fill="#000000" font-family="Verdana" font-size="12">verified_at</text>
</g>

<!-- Entity CONVERSATION -->
<g>
	<g>
		<rect x="505" y="389" width="110" height="25" fill="#fdb863" stroke="none" stroke-width="0" opacity="1"/>
		<rect x="505" y="414" width="110" height="77" fill="#fee0b6" stroke="none" stroke-width="0" opacity="1"/>
		<rect x="505" y="389" width="110" height="102" fill="none" stroke="#e08214" stroke-width="2" opacity="1"/>
		<line x1="505" y1="414" x2="615" y2="414" stroke="#e08214" stroke-width="1"/>
	</g>
	<text x="511" y="406.75" fill="#000000" font-family="Verdana" font-size="12">CONVERSATION</text>
	<text x="510" y="431.8" fill="#000000" font-family="Verdana" font-size="12">id</text>
	<line x1="510" y1="434" x2="522" y2="434" stroke="#000000" stroke-width="1"/>
	<text x="510" y="448.8" fill="#000000" font-family="Verdana" font-size="12">created_at</text>
	<text x="510" y="465.8" fill="#000000" font-family="Verdana" font-size="12">user_id_1</text>
	<text x="510" y="482.8" fill="#000000" font-family="Verdana" font-size="12">user_id_2</text>
</g>

<!-- Entity MESSAGE -->
<g>
	<g>
		<rect x="389" y="558" width="76" height="25" fill="#fdb863" stroke="none" stroke-width="0" opacity="1"/>
		<rect x="389" y="583" width="76" height="93" fill="#fee0b6" stroke="none" stroke-width="0" opacity="1"/>
		<rect x="389" y="558" width="76" height="118" fill="none" stroke="#e08214" stroke-width="2" opacity="1"/>
		<line x1="389" y1="583" x2="465" y2="583" stroke="#e08214" stroke-width="1"/>
	</g>
	<text x="397" y="575.75" fill="#000000" font-family="Verdana" font-size="12">MESSAGE</text>
	<text x="394" y="600.8" fill="#000000" font-family="Verdana" font-size="12">id</text>
	<line x1="394" y1="603" x2="406" y2="603" stroke="#000000" stroke-width="1"/>
	<text x="394" y="617.8" fill="#000000" font-family="Verdana" font-size="12">content</text>
	<text x="394" y="634.8" fill="#000000" font-family="Verdana" font-size="12">created_at</text>
	<text x="394" y="651.8" fill="#000000" font-family="Verdana" font-size="12">change_at</text>
	<text x="394" y="668.8" fill="#000000" font-family="Verdana" font-size="12">deleted_at</text>
</g>

<!-- Entity MATCH -->
<g>
	<g>
		<rect x="29" y="667" width="76" height="25" fill="#fdb863" stroke="none" stroke-width="0" opacity="1"/>
		<rect x="29" y="692" width="76" height="93" fill="#fee0b6" stroke="none" stroke-width="0" opacity="1"/>
		<rect x="29" y="667" width="76" height="118" fill="none" stroke="#e08214" stroke-width="2" opacity="1"/>
		<line x1="29" y1="692" x2="105" y2="692" stroke="#e08214" stroke-width="1"/>
	</g>
	<text x="45" y="684.75" fill="#000000" font-family="Verdana" font-size="12">MATCH</text>
	<text x="34" y="709.8" fill="#000000" font-family="Verdana" font-size="12">id</text>
	<line x1="34" y1="712" x2="46" y2="712" stroke="#000000" stroke-width="1"/>
	<text x="34" y="726.8" fill="#000000" font-family="Verdana" font-size="12">user_id_1</text>
	<text x="34" y="743.8" fill="#000000" font-family="Verdana" font-size="12">user_id_2</text>
	<text x="34" y="760.8" fill="#000000" font-family="Verdana" font-size="12">status</text>
	<text x="34" y="777.8" fill="#000000" font-family="Verdana" font-size="12">created_at</text>
</g>
</svg>