<?xml version="1.0" encoding="utf-8"?>
<!-- Generated by Mocodo 4.2.12 -->
<svg width="634" height="634" viewBox="0 0 634 634" xmlns="http://www.w3.org/2000/svg">
<rect x="0" y="0" width="634" height="634" fill="#f7f7f7" stroke="none" stroke-width="0"/>

<!-- Association RESERVER -->
<g>
	<line x1="327" y1="440" x2="197" y2="136" stroke="#8073ac" stroke-width="2"/>
	<line x1="327" y1="136" x2="197" y2="136" stroke="#8073ac" stroke-width="2"/>
	<g>
		<path d="M223 111 a14 14 90 0 1 14 14 V136 h-80 V125 a14 14 90 0 1 14 -14" fill="#b2abd2" stroke="#b2abd2" stroke-width="0"/>
		<path d="M237 136 v11 a14 14 90 0 1 -14 14 H171 a14 14 90 0 1 -14 -14 V136 H80" fill="#d8daeb" stroke="#d8daeb" stroke-width="0"/>
		<rect x="157" y="111" width="80" height="50" fill="none" rx="14" stroke="#8073ac" stroke-width="2"/>
		<line x1="157" y1="136" x2="237" y2="136" stroke="#8073ac" stroke-width="1"/>
		<text x="165" y="128.75" fill="#000000" font-family="Verdana" font-size="12">RESERVER</text>
	</g>
	<text x="296.15" y="356" fill="#b35806" font-family="Verdana" font-size="12">1,N</text>
	<text x="242" y="153" fill="#b35806" font-family="Verdana" font-size="12">1,N</text>
</g>

<!-- Association AVOIR -->
<g>
	<line x1="578" y1="313" x2="578" y2="136" stroke="#8073ac" stroke-width="2"/>
	<line x1="453" y1="136" x2="578" y2="136" stroke="#8073ac" stroke-width="2"/>
	<g>
		<path d="M591 111 a14 14 90 0 1 14 14 V136 h-54 V125 a14 14 90 0 1 14 -14" fill="#b2abd2" stroke="#b2abd2" stroke-width="0"/>
		<path d="M605 136 v11 a14 14 90 0 1 -14 14 H565 a14 14 90 0 1 -14 -14 V136 H54" fill="#d8daeb" stroke="#d8daeb" stroke-width="0"/>
		<rect x="551" y="111" width="54" height="50" fill="none" rx="14" stroke="#8073ac" stroke-width="2"/>
		<line x1="551" y1="136" x2="605" y2="136" stroke="#8073ac" stroke-width="1"/>
		<text x="558" y="128.75" fill="#000000" font-family="Verdana" font-size="12">AVOIR</text>
	</g>
	<text x="583" y="203" fill="#b35806" font-family="Verdana" font-size="12">0,N</text>
	<text x="494" y="153" fill="#b35806" font-family="Verdana" font-size="12">0,N</text>
</g>

<!-- Association APPARTIENT3 -->
<g>
	<line x1="327" y1="440" x2="197" y2="313" stroke="#8073ac" stroke-width="2"/>
	<line x1="64" y1="313" x2="197" y2="313" stroke="#8073ac" stroke-width="2"/>
	<g>
		<path d="M229 288 a14 14 90 0 1 14 14 V313 h-92 V302 a14 14 90 0 1 14 -14" fill="#b2abd2" stroke="#b2abd2" stroke-width="0"/>
		<path d="M243 313 v11 a14 14 90 0 1 -14 14 H165 a14 14 90 0 1 -14 -14 V313 H92" fill="#d8daeb" stroke="#d8daeb" stroke-width="0"/>
		<rect x="151" y="288" width="92" height="50" fill="none" rx="14" stroke="#8073ac" stroke-width="2"/>
		<line x1="151" y1="313" x2="243" y2="313" stroke="#8073ac" stroke-width="1"/>
		<text x="159" y="305.75" fill="#000000" font-family="Verdana" font-size="12">APPARTIENT</text>
		<text x="158" y="330.8" fill="#000000" font-family="Verdana" font-size="12">user_id_2</text>
	</g>
	<text x="261" y="410.97" fill="#b35806" font-family="Verdana" font-size="12">0,1</text>
	<text x="124" y="305" fill="#b35806" font-family="Verdana" font-size="12">1,1</text>
</g>

<!-- Association CREER2 -->
<g>
	<line x1="327" y1="440" x2="327" y2="313" stroke="#8073ac" stroke-width="2"/>
	<line x1="327" y1="136" x2="327" y2="313" stroke="#8073ac" stroke-width="2"/>
	<g>
		<path d="M341 288 a14 14 90 0 1 14 14 V313 h-56 V302 a14 14 90 0 1 14 -14" fill="#b2abd2" stroke="#b2abd2" stroke-width="0"/>
		<path d="M355 313 v11 a14 14 90 0 1 -14 14 H313 a14 14 90 0 1 -14 -14 V313 H56" fill="#d8daeb" stroke="#d8daeb" stroke-width="0"/>
		<rect x="299" y="288" width="56" height="50" fill="none" rx="14" stroke="#8073ac" stroke-width="2"/>
		<line x1="299" y1="313" x2="355" y2="313" stroke="#8073ac" stroke-width="1"/>
		<text x="307" y="305.75" fill="#000000" font-family="Verdana" font-size="12">CREER</text>
	</g>
	<text x="332" y="356" fill="#b35806" font-family="Verdana" font-size="12">1,1</text>
	<text x="332" y="280" fill="#b35806" font-family="Verdana" font-size="12">1,1</text>
</g>

<!-- Association APPARTIENT -->
<g>
	<line x1="327" y1="440" x2="453" y2="313" stroke="#8073ac" stroke-width="2"/>
	<line x1="578" y1="313" x2="453" y2="313" stroke="#8073ac" stroke-width="2"/>
	<g>
		<path d="M485 288 a14 14 90 0 1 14 14 V313 h-92 V302 a14 14 90 0 1 14 -14" fill="#b2abd2" stroke="#b2abd2" stroke-width="0"/>
		<path d="M499 313 v11 a14 14 90 0 1 -14 14 H421 a14 14 90 0 1 -14 -14 V313 H92" fill="#d8daeb" stroke="#d8daeb" stroke-width="0"/>
		<rect x="407" y="288" width="92" height="50" fill="none" rx="14" stroke="#8073ac" stroke-width="2"/>
		<line x1="407" y1="313" x2="499" y2="313" stroke="#8073ac" stroke-width="1"/>
		<text x="415" y="305.75" fill="#000000" font-family="Verdana" font-size="12">APPARTIENT</text>
	</g>
	<text x="372" y="409.65" fill="#b35806" font-family="Verdana" font-size="12">1,1</text>
	<text x="505" y="330" fill="#b35806" font-family="Verdana" font-size="12">1,1</text>
</g>

<!-- Association APPARTIENT1 -->
<g>
	<line x1="64" y1="566" x2="64" y2="440" stroke="#8073ac" stroke-width="2"/>
	<line x1="64" y1="313" x2="64" y2="440" stroke="#8073ac" stroke-width="2"/>
	<g>
		<path d="M96 415 a14 14 90 0 1 14 14 V440 h-92 V429 a14 14 90 0 1 14 -14" fill="#b2abd2" stroke="#b2abd2" stroke-width="0"/>
		<path d="M110 440 v11 a14 14 90 0 1 -14 14 H32 a14 14 90 0 1 -14 -14 V440 H92" fill="#d8daeb" stroke="#d8daeb" stroke-width="0"/>
		<rect x="18" y="415" width="92" height="50" fill="none" rx="14" stroke="#8073ac" stroke-width="2"/>
		<line x1="18" y1="440" x2="110" y2="440" stroke="#8073ac" stroke-width="1"/>
		<text x="26" y="432.75" fill="#000000" font-family="Verdana" font-size="12">APPARTIENT</text>
	</g>
	<text x="69" y="499" fill="#b35806" font-family="Verdana" font-size="12">1,1</text>
	<text x="37" y="381" fill="#b35806" font-family="Verdana" font-size="12">1,N</text>
</g>

<!-- Association APPARTIENT2 -->
<g>
	<line x1="327" y1="440" x2="197" y2="440" stroke="#8073ac" stroke-width="2"/>
	<line x1="64" y1="313" x2="197" y2="440" stroke="#8073ac" stroke-width="2"/>
	<g>
		<path d="M229 415 a14 14 90 0 1 14 14 V440 h-92 V429 a14 14 90 0 1 14 -14" fill="#b2abd2" stroke="#b2abd2" stroke-width="0"/>
		<path d="M243 440 v11 a14 14 90 0 1 -14 14 H165 a14 14 90 0 1 -14 -14 V440 H92" fill="#d8daeb" stroke="#d8daeb" stroke-width="0"/>
		<rect x="151" y="415" width="92" height="50" fill="none" rx="14" stroke="#8073ac" stroke-width="2"/>
		<line x1="151" y1="440" x2="243" y2="440" stroke="#8073ac" stroke-width="1"/>
		<text x="159" y="432.75" fill="#000000" font-family="Verdana" font-size="12">APPARTIENT</text>
		<text x="158" y="457.8" fill="#000000" font-family="Verdana" font-size="12">user_id_1</text>
	</g>
	<text x="261" y="457" fill="#b35806" font-family="Verdana" font-size="12">0,1</text>
	<text x="98.25" y="381" fill="#b35806" font-family="Verdana" font-size="12">1,1</text>
</g>

<!-- Association CREER1 -->
<g>
	<line x1="327" y1="440" x2="453" y2="440" stroke="#8073ac" stroke-width="2"/>
	<line x1="453" y1="566" x2="453" y2="440" stroke="#8073ac" stroke-width="2"/>
	<g>
		<path d="M477 415 a14 14 90 0 1 14 14 V440 h-76 V429 a14 14 90 0 1 14 -14" fill="#b2abd2" stroke="#b2abd2" stroke-width="0"/>
		<path d="M491 440 v11 a14 14 90 0 1 -14 14 H429 a14 14 90 0 1 -14 -14 V440 H76" fill="#d8daeb" stroke="#d8daeb" stroke-width="0"/>
		<rect x="415" y="415" width="76" height="50" fill="none" rx="14" stroke="#8073ac" stroke-width="2"/>
		<line x1="415" y1="440" x2="491" y2="440" stroke="#8073ac" stroke-width="1"/>
		<text x="433" y="432.75" fill="#000000" font-family="Verdana" font-size="12">CREER</text>
		<text x="422" y="457.8" fill="#000000" font-family="Verdana" font-size="12">user_id_1</text>
	</g>
	<text x="372" y="457" fill="#b35806" font-family="Verdana" font-size="12">0,N</text>
	<text x="458" y="499" fill="#b35806" font-family="Verdana" font-size="12">1,1</text>
</g>

<!-- Association CREER -->
<g>
	<line x1="327" y1="440" x2="197" y2="566" stroke="#8073ac" stroke-width="2"/>
	<line x1="64" y1="566" x2="197" y2="566" stroke="#8073ac" stroke-width="2"/>
	<g>
		<path d="M211 541 a14 14 90 0 1 14 14 V566 h-56 V555 a14 14 90 0 1 14 -14" fill="#b2abd2" stroke="#b2abd2" stroke-width="0"/>
		<path d="M225 566 v11 a14 14 90 0 1 -14 14 H183 a14 14 90 0 1 -14 -14 V566 H56" fill="#d8daeb" stroke="#d8daeb" stroke-width="0"/>
		<rect x="169" y="541" width="56" height="50" fill="none" rx="14" stroke="#8073ac" stroke-width="2"/>
		<line x1="169" y1="566" x2="225" y2="566" stroke="#8073ac" stroke-width="1"/>
		<text x="177" y="558.75" fill="#000000" font-family="Verdana" font-size="12">CREER</text>
	</g>
	<text x="261" y="477.68" fill="#b35806" font-family="Verdana" font-size="12">1,1</text>
	<text x="107" y="583" fill="#b35806" font-family="Verdana" font-size="12">1,1</text>
</g>

<!-- Association APPARTIENT4 -->
<g>
	<line x1="327" y1="440" x2="327" y2="566" stroke="#8073ac" stroke-width="2"/>
	<line x1="453" y1="566" x2="327" y2="566" stroke="#8073ac" stroke-width="2"/>
	<g>
		<path d="M359 541 a14 14 90 0 1 14 14 V566 h-92 V555 a14 14 90 0 1 14 -14" fill="#b2abd2" stroke="#b2abd2" stroke-width="0"/>
		<path d="M373 566 v11 a14 14 90 0 1 -14 14 H295 a14 14 90 0 1 -14 -14 V566 H92" fill="#d8daeb" stroke="#d8daeb" stroke-width="0"/>
		<rect x="281" y="541" width="92" height="50" fill="none" rx="14" stroke="#8073ac" stroke-width="2"/>
		<line x1="281" y1="566" x2="373" y2="566" stroke="#8073ac" stroke-width="1"/>
		<text x="289" y="558.75" fill="#000000" font-family="Verdana" font-size="12">APPARTIENT</text>
		<text x="288" y="583.8" fill="#000000" font-family="Verdana" font-size="12">user_id_2</text>
	</g>
	<text x="332" y="533" fill="#b35806" font-family="Verdana" font-size="12">0,N</text>
	<text x="389" y="583" fill="#b35806" font-family="Verdana" font-size="12">1,1</text>
</g>

<!-- Entity EVENT -->
<g>
	<g>
		<rect x="269" y="9" width="116" height="25" fill="#fdb863" stroke="none" stroke-width="0" opacity="1"/>
		<rect x="269" y="34" width="116" height="229" fill="#fee0b6" stroke="none" stroke-width="0" opacity="1"/>
		<rect x="269" y="9" width="116" height="254" fill="none" stroke="#e08214" stroke-width="2" opacity="1"/>
		<line x1="269" y1="34" x2="385" y2="34" stroke="#e08214" stroke-width="1"/>
	</g>
	<text x="307" y="26.75" fill="#000000" font-family="Verdana" font-size="12">EVENT</text>
	<text x="274" y="51.8" fill="#000000" font-family="Verdana" font-size="12">id</text>
	<line x1="274" y1="54" x2="286" y2="54" stroke="#000000" stroke-width="1"/>
	<text x="274" y="68.8" fill="#000000" font-family="Verdana" font-size="12">title</text>
	<text x="274" y="85.8" fill="#000000" font-family="Verdana" font-size="12">tag</text>
	<text x="274" y="102.8" fill="#000000" font-family="Verdana" font-size="12">description</text>
	<text x="274" y="119.8" fill="#000000" font-family="Verdana" font-size="12">date</text>
	<text x="274" y="136.8" fill="#000000" font-family="Verdana" font-size="12">time</text>
	<text x="274" y="153.8" fill="#000000" font-family="Verdana" font-size="12">street</text>
	<text x="274" y="170.8" fill="#000000" font-family="Verdana" font-size="12">city</text>
	<text x="274" y="187.8" fill="#000000" font-family="Verdana" font-size="12">postal_code</text>
	<text x="274" y="204.8" fill="#000000" font-family="Verdana" font-size="12">thumbnail_image</text>
	<text x="274" y="221.8" fill="#000000" font-family="Verdana" font-size="12">full_image</text>
	<text x="274" y="238.8" fill="#000000" font-family="Verdana" font-size="12">max_participant</text>
	<text x="274" y="255.8" fill="#000000" font-family="Verdana" font-size="12">status</text>
</g>

<!-- Entity INTEREST -->
<g>
	<g>
		<rect x="417" y="102" width="72" height="25" fill="#fdb863" stroke="none" stroke-width="0" opacity="1"/>
		<rect x="417" y="127" width="72" height="43" fill="#fee0b6" stroke="none" stroke-width="0" opacity="1"/>
		<rect x="417" y="102" width="72" height="68" fill="none" stroke="#e08214" stroke-width="2" opacity="1"/>
		<line x1="417" y1="127" x2="489" y2="127" stroke="#e08214" stroke-width="1"/>
	</g>
	<text x="422" y="119.75" fill="#000000" font-family="Verdana" font-size="12">INTEREST</text>
	<text x="422" y="144.8" fill="#000000" font-family="Verdana" font-size="12">id</text>
	<line x1="422" y1="147" x2="434" y2="147" stroke="#000000" stroke-width="1"/>
	<text x="422" y="161.8" fill="#000000" font-family="Verdana" font-size="12">name</text>
</g>

<!-- Entity CONVERSATION -->
<g>
	<g>
		<rect x="9" y="262" width="110" height="25" fill="#fdb863" stroke="none" stroke-width="0" opacity="1"/>
		<rect x="9" y="287" width="110" height="77" fill="#fee0b6" stroke="none" stroke-width="0" opacity="1"/>
		<rect x="9" y="262" width="110" height="102" fill="none" stroke="#e08214" stroke-width="2" opacity="1"/>
		<line x1="9" y1="287" x2="119" y2="287" stroke="#e08214" stroke-width="1"/>
	</g>
	<text x="15" y="279.75" fill="#000000" font-family="Verdana" font-size="12">CONVERSATION</text>
	<text x="14" y="304.8" fill="#000000" font-family="Verdana" font-size="12">id</text>
	<line x1="14" y1="307" x2="26" y2="307" stroke="#000000" stroke-width="1"/>
	<text x="14" y="321.8" fill="#000000" font-family="Verdana" font-size="12">created_at</text>
	<text x="14" y="338.8" fill="#000000" font-family="Verdana" font-size="12">user_id_1</text>
	<text x="14" y="355.8" fill="#000000" font-family="Verdana" font-size="12">user_id_2</text>
</g>

<!-- Entity PROFIL -->
<g>
	<g>
		<rect x="531" y="211" width="94" height="25" fill="#fdb863" stroke="none" stroke-width="0" opacity="1"/>
		<rect x="531" y="236" width="94" height="179" fill="#fee0b6" stroke="none" stroke-width="0" opacity="1"/>
		<rect x="531" y="211" width="94" height="204" fill="none" stroke="#e08214" stroke-width="2" opacity="1"/>
		<line x1="531" y1="236" x2="625" y2="236" stroke="#e08214" stroke-width="1"/>
	</g>
	<text x="556" y="228.75" fill="#000000" font-family="Verdana" font-size="12">PROFIL</text>
	<text x="536" y="253.8" fill="#000000" font-family="Verdana" font-size="12">id</text>
	<line x1="536" y1="256" x2="548" y2="256" stroke="#000000" stroke-width="1"/>
	<text x="536" y="270.8" fill="#000000" font-family="Verdana" font-size="12">pseudo</text>
	<text x="536" y="287.8" fill="#000000" font-family="Verdana" font-size="12">age</text>
	<text x="536" y="304.8" fill="#000000" font-family="Verdana" font-size="12">gender</text>
	<text x="536" y="321.8" fill="#000000" font-family="Verdana" font-size="12">looking_for</text>
	<text x="536" y="338.8" fill="#000000" font-family="Verdana" font-size="12">city</text>
	<text x="536" y="355.8" fill="#000000" font-family="Verdana" font-size="12">description</text>
	<text x="536" y="372.8" fill="#000000" font-family="Verdana" font-size="12">interests</text>
	<text x="536" y="389.8" fill="#000000" font-family="Verdana" font-size="12">profile_image</text>
	<text x="536" y="406.8" fill="#000000" font-family="Verdana" font-size="12">last_online</text>
</g>

<!-- Entity USER -->
<g>
	<g>
		<rect x="287" y="364" width="80" height="25" fill="#fdb863" stroke="none" stroke-width="0" opacity="1"/>
		<rect x="287" y="389" width="80" height="127" fill="#fee0b6" stroke="none" stroke-width="0" opacity="1"/>
		<rect x="287" y="364" width="80" height="152" fill="none" stroke="#e08214" stroke-width="2" opacity="1"/>
		<line x1="287" y1="389" x2="367" y2="389" stroke="#e08214" stroke-width="1"/>
	</g>
	<text x="310" y="381.75" fill="#000000" font-family="Verdana" font-size="12">USER</text>
	<text x="292" y="406.8" fill="#000000" font-family="Verdana" font-size="12">id</text>
	<line x1="292" y1="409" x2="304" y2="409" stroke="#000000" stroke-width="1"/>
	<text x="292" y="423.8" fill="#000000" font-family="Verdana" font-size="12">mail</text>
	<text x="292" y="440.8" fill="#000000" font-family="Verdana" font-size="12">password</text>
	<text x="292" y="457.8" fill="#000000" font-family="Verdana" font-size="12">created_at</text>
	<text x="292" y="474.8" fill="#000000" font-family="Verdana" font-size="12">disabled_at</text>
	<text x="292" y="491.8" fill="#000000" font-family="Verdana" font-size="12">deleted_at</text>
	<text x="292" y="508.8" fill="#000000" font-family="Verdana" font-size="12">verified_at</text>
</g>

<!-- Entity MESSAGE -->
<g>
	<g>
		<rect x="26" y="507" width="76" height="25" fill="#fdb863" stroke="none" stroke-width="0" opacity="1"/>
		<rect x="26" y="532" width="76" height="93" fill="#fee0b6" stroke="none" stroke-width="0" opacity="1"/>
		<rect x="26" y="507" width="76" height="118" fill="none" stroke="#e08214" stroke-width="2" opacity="1"/>
		<line x1="26" y1="532" x2="102" y2="532" stroke="#e08214" stroke-width="1"/>
	</g>
	<text x="34" y="524.75" fill="#000000" font-family="Verdana" font-size="12">MESSAGE</text>
	<text x="31" y="549.8" fill="#000000" font-family="Verdana" font-size="12">id</text>
	<line x1="31" y1="552" x2="43" y2="552" stroke="#000000" stroke-width="1"/>
	<text x="31" y="566.8" fill="#000000" font-family="Verdana" font-size="12">content</text>
	<text x="31" y="583.8" fill="#000000" font-family="Verdana" font-size="12">created_at</text>
	<text x="31" y="600.8" fill="#000000" font-family="Verdana" font-size="12">change_at</text>
	<text x="31" y="617.8" fill="#000000" font-family="Verdana" font-size="12">deleted_at</text>
</g>

<!-- Entity MATCH -->
<g>
	<g>
		<rect x="415" y="507" width="76" height="25" fill="#fdb863" stroke="none" stroke-width="0" opacity="1"/>
		<rect x="415" y="532" width="76" height="93" fill="#fee0b6" stroke="none" stroke-width="0" opacity="1"/>
		<rect x="415" y="507" width="76" height="118" fill="none" stroke="#e08214" stroke-width="2" opacity="1"/>
		<line x1="415" y1="532" x2="491" y2="532" stroke="#e08214" stroke-width="1"/>
	</g>
	<text x="431" y="524.75" fill="#000000" font-family="Verdana" font-size="12">MATCH</text>
	<text x="420" y="549.8" fill="#000000" font-family="Verdana" font-size="12">id</text>
	<line x1="420" y1="552" x2="432" y2="552" stroke="#000000" stroke-width="1"/>
	<text x="420" y="566.8" fill="#000000" font-family="Verdana" font-size="12">user_id_1</text>
	<text x="420" y="583.8" fill="#000000" font-family="Verdana" font-size="12">user_id_2</text>
	<text x="420" y="600.8" fill="#000000" font-family="Verdana" font-size="12">status</text>
	<text x="420" y="617.8" fill="#000000" font-family="Verdana" font-size="12">created_at</text>
</g>
</svg>