<?xml version="1.0" encoding="utf-8"?>
<!-- Generated by Mocodo 4.2.12 -->
<svg width="731" height="778" viewBox="0 0 731 778" xmlns="http://www.w3.org/2000/svg">
<rect x="0" y="0" width="731" height="778" fill="#f7f7f7" stroke="none" stroke-width="0"/>

<!-- Association APPARTIENT4 -->
<g>
	<line x1="280" y1="313" x2="155" y2="136" stroke="#8073ac" stroke-width="2"/>
	<line x1="47" y1="313" x2="155" y2="136" stroke="#8073ac" stroke-width="2"/>
	<g>
		<path d="M187 111 a14 14 90 0 1 14 14 V136 h-92 V125 a14 14 90 0 1 14 -14" fill="#b2abd2" stroke="#b2abd2" stroke-width="0"/>
		<path d="M201 136 v11 a14 14 90 0 1 -14 14 H123 a14 14 90 0 1 -14 -14 V136 H92" fill="#d8daeb" stroke="#d8daeb" stroke-width="0"/>
		<rect x="109" y="111" width="92" height="50" fill="none" rx="14" stroke="#8073ac" stroke-width="2"/>
		<line x1="109" y1="136" x2="201" y2="136" stroke="#8073ac" stroke-width="1"/>
		<text x="117" y="128.75" fill="#000000" font-family="Verdana" font-size="12">APPARTIENT</text>
		<text x="116" y="153.8" fill="#000000" font-family="Verdana" font-size="12">user_id_2</text>
	</g>
	<text x="213" y="267.99" fill="#b35806" font-family="Verdana" font-size="12">0,N</text>
	<text x="61.72" y="246" fill="#b35806" font-family="Verdana" font-size="12">1,1</text>
</g>

<!-- Association RESERVER -->
<g>
	<line x1="280" y1="313" x2="280" y2="136" stroke="#8073ac" stroke-width="2"/>
	<line x1="410" y1="136" x2="280" y2="136" stroke="#8073ac" stroke-width="2"/>
	<g>
		<path d="M306 111 a14 14 90 0 1 14 14 V136 h-80 V125 a14 14 90 0 1 14 -14" fill="#b2abd2" stroke="#b2abd2" stroke-width="0"/>
		<path d="M320 136 v11 a14 14 90 0 1 -14 14 H254 a14 14 90 0 1 -14 -14 V136 H80" fill="#d8daeb" stroke="#d8daeb" stroke-width="0"/>
		<rect x="240" y="111" width="80" height="50" fill="none" rx="14" stroke="#8073ac" stroke-width="2"/>
		<line x1="240" y1="136" x2="320" y2="136" stroke="#8073ac" stroke-width="1"/>
		<text x="248" y="128.75" fill="#000000" font-family="Verdana" font-size="12">RESERVER</text>
	</g>
	<text x="285" y="229" fill="#b35806" font-family="Verdana" font-size="12">0,N</text>
	<text x="325" y="153" fill="#b35806" font-family="Verdana" font-size="12">1,N</text>
</g>

<!-- Association CREER1 -->
<g>
	<line x1="280" y1="313" x2="155" y2="313" stroke="#8073ac" stroke-width="2"/>
	<line x1="47" y1="313" x2="155" y2="313" stroke="#8073ac" stroke-width="2"/>
	<g>
		<path d="M179 288 a14 14 90 0 1 14 14 V313 h-76 V302 a14 14 90 0 1 14 -14" fill="#b2abd2" stroke="#b2abd2" stroke-width="0"/>
		<path d="M193 313 v11 a14 14 90 0 1 -14 14 H131 a14 14 90 0 1 -14 -14 V313 H76" fill="#d8daeb" stroke="#d8daeb" stroke-width="0"/>
		<rect x="117" y="288" width="76" height="50" fill="none" rx="14" stroke="#8073ac" stroke-width="2"/>
		<line x1="117" y1="313" x2="193" y2="313" stroke="#8073ac" stroke-width="1"/>
		<text x="135" y="305.75" fill="#000000" font-family="Verdana" font-size="12">CREER</text>
		<text x="124" y="330.8" fill="#000000" font-family="Verdana" font-size="12">user_id_1</text>
	</g>
	<text x="213" y="330" fill="#b35806" font-family="Verdana" font-size="12">0,N</text>
	<text x="90" y="330" fill="#b35806" font-family="Verdana" font-size="12">1,1</text>
</g>

<!-- Association CREER2 -->
<g>
	<line x1="280" y1="313" x2="410" y2="313" stroke="#8073ac" stroke-width="2"/>
	<line x1="410" y1="136" x2="410" y2="313" stroke="#8073ac" stroke-width="2"/>
	<g>
		<path d="M424 288 a14 14 90 0 1 14 14 V313 h-56 V302 a14 14 90 0 1 14 -14" fill="#b2abd2" stroke="#b2abd2" stroke-width="0"/>
		<path d="M438 313 v11 a14 14 90 0 1 -14 14 H396 a14 14 90 0 1 -14 -14 V313 H56" fill="#d8daeb" stroke="#d8daeb" stroke-width="0"/>
		<rect x="382" y="288" width="56" height="50" fill="none" rx="14" stroke="#8073ac" stroke-width="2"/>
		<line x1="382" y1="313" x2="438" y2="313" stroke="#8073ac" stroke-width="1"/>
		<text x="390" y="305.75" fill="#000000" font-family="Verdana" font-size="12">CREER</text>
	</g>
	<text x="325" y="305" fill="#b35806" font-family="Verdana" font-size="12">0,N</text>
	<text x="415" y="280" fill="#b35806" font-family="Verdana" font-size="12">1,1</text>
</g>

<!-- Association APPARTIENT -->
<g>
	<line x1="280" y1="313" x2="280" y2="499" stroke="#8073ac" stroke-width="2"/>
	<line x1="155" y1="499" x2="280" y2="499" stroke="#8073ac" stroke-width="2"/>
	<g>
		<path d="M312 474 a14 14 90 0 1 14 14 V499 h-92 V488 a14 14 90 0 1 14 -14" fill="#b2abd2" stroke="#b2abd2" stroke-width="0"/>
		<path d="M326 499 v11 a14 14 90 0 1 -14 14 H248 a14 14 90 0 1 -14 -14 V499 H92" fill="#d8daeb" stroke="#d8daeb" stroke-width="0"/>
		<rect x="234" y="474" width="92" height="50" fill="none" rx="14" stroke="#8073ac" stroke-width="2"/>
		<line x1="234" y1="499" x2="326" y2="499" stroke="#8073ac" stroke-width="1"/>
		<text x="242" y="491.75" fill="#000000" font-family="Verdana" font-size="12">APPARTIENT</text>
	</g>
	<text x="254" y="406" fill="#b35806" font-family="Verdana" font-size="12">1,1</text>
	<text x="207" y="516" fill="#b35806" font-family="Verdana" font-size="12">1,1</text>
</g>

<!-- Association APPARTIENT2 -->
<g>
	<line x1="280" y1="313" x2="410" y2="499" stroke="#8073ac" stroke-width="2"/>
	<line x1="543" y1="651" x2="410" y2="499" stroke="#8073ac" stroke-width="2"/>
	<g>
		<path d="M442 474 a14 14 90 0 1 14 14 V499 h-92 V488 a14 14 90 0 1 14 -14" fill="#b2abd2" stroke="#b2abd2" stroke-width="0"/>
		<path d="M456 499 v11 a14 14 90 0 1 -14 14 H378 a14 14 90 0 1 -14 -14 V499 H92" fill="#d8daeb" stroke="#d8daeb" stroke-width="0"/>
		<rect x="364" y="474" width="92" height="50" fill="none" rx="14" stroke="#8073ac" stroke-width="2"/>
		<line x1="364" y1="499" x2="456" y2="499" stroke="#8073ac" stroke-width="1"/>
		<text x="372" y="491.75" fill="#000000" font-family="Verdana" font-size="12">APPARTIENT</text>
		<text x="371" y="516.8" fill="#000000" font-family="Verdana" font-size="12">user_id_1</text>
	</g>
	<text x="325" y="367.56" fill="#b35806" font-family="Verdana" font-size="12">0,N</text>
	<text x="496.97" y="592" fill="#b35806" font-family="Verdana" font-size="12">1,1</text>
</g>

<!-- Association CREER -->
<g>
	<line x1="280" y1="313" x2="543" y2="499" stroke="#8073ac" stroke-width="2"/>
	<line x1="676" y1="499" x2="543" y2="499" stroke="#8073ac" stroke-width="2"/>
	<g>
		<path d="M557 474 a14 14 90 0 1 14 14 V499 h-56 V488 a14 14 90 0 1 14 -14" fill="#b2abd2" stroke="#b2abd2" stroke-width="0"/>
		<path d="M571 499 v11 a14 14 90 0 1 -14 14 H529 a14 14 90 0 1 -14 -14 V499 H56" fill="#d8daeb" stroke="#d8daeb" stroke-width="0"/>
		<rect x="515" y="474" width="56" height="50" fill="none" rx="14" stroke="#8073ac" stroke-width="2"/>
		<line x1="515" y1="499" x2="571" y2="499" stroke="#8073ac" stroke-width="1"/>
		<text x="523" y="491.75" fill="#000000" font-family="Verdana" font-size="12">CREER</text>
	</g>
	<text x="325" y="338.67" fill="#b35806" font-family="Verdana" font-size="12">1,1</text>
	<text x="612" y="516" fill="#b35806" font-family="Verdana" font-size="12">1,1</text>
</g>

<!-- Association AVOIR -->
<g>
	<line x1="155" y1="499" x2="155" y2="651" stroke="#8073ac" stroke-width="2"/>
	<line x1="155" y1="735" x2="155" y2="651" stroke="#8073ac" stroke-width="2"/>
	<g>
		<path d="M168 626 a14 14 90 0 1 14 14 V651 h-54 V640 a14 14 90 0 1 14 -14" fill="#b2abd2" stroke="#b2abd2" stroke-width="0"/>
		<path d="M182 651 v11 a14 14 90 0 1 -14 14 H142 a14 14 90 0 1 -14 -14 V651 H54" fill="#d8daeb" stroke="#d8daeb" stroke-width="0"/>
		<rect x="128" y="626" width="54" height="50" fill="none" rx="14" stroke="#8073ac" stroke-width="2"/>
		<line x1="128" y1="651" x2="182" y2="651" stroke="#8073ac" stroke-width="1"/>
		<text x="135" y="643.75" fill="#000000" font-family="Verdana" font-size="12">AVOIR</text>
	</g>
	<text x="160" y="618" fill="#b35806" font-family="Verdana" font-size="12">0,N</text>
	<text x="160" y="693" fill="#b35806" font-family="Verdana" font-size="12">0,N</text>
</g>

<!-- Association APPARTIENT3 -->
<g>
	<line x1="280" y1="313" x2="410" y2="651" stroke="#8073ac" stroke-width="2"/>
	<line x1="543" y1="651" x2="410" y2="651" stroke="#8073ac" stroke-width="2"/>
	<g>
		<path d="M442 626 a14 14 90 0 1 14 14 V651 h-92 V640 a14 14 90 0 1 14 -14" fill="#b2abd2" stroke="#b2abd2" stroke-width="0"/>
		<path d="M456 651 v11 a14 14 90 0 1 -14 14 H378 a14 14 90 0 1 -14 -14 V651 H92" fill="#d8daeb" stroke="#d8daeb" stroke-width="0"/>
		<rect x="364" y="626" width="92" height="50" fill="none" rx="14" stroke="#8073ac" stroke-width="2"/>
		<line x1="364" y1="651" x2="456" y2="651" stroke="#8073ac" stroke-width="1"/>
		<text x="372" y="643.75" fill="#000000" font-family="Verdana" font-size="12">APPARTIENT</text>
		<text x="371" y="668.8" fill="#000000" font-family="Verdana" font-size="12">user_id_2</text>
	</g>
	<text x="285.24" y="406" fill="#b35806" font-family="Verdana" font-size="12">0,N</text>
	<text x="462" y="668" fill="#b35806" font-family="Verdana" font-size="12">1,1</text>
</g>

<!-- Association APPARTIENT1 -->
<g>
	<line x1="676" y1="499" x2="676" y2="651" stroke="#8073ac" stroke-width="2"/>
	<line x1="543" y1="651" x2="676" y2="651" stroke="#8073ac" stroke-width="2"/>
	<g>
		<path d="M708 626 a14 14 90 0 1 14 14 V651 h-92 V640 a14 14 90 0 1 14 -14" fill="#b2abd2" stroke="#b2abd2" stroke-width="0"/>
		<path d="M722 651 v11 a14 14 90 0 1 -14 14 H644 a14 14 90 0 1 -14 -14 V651 H92" fill="#d8daeb" stroke="#d8daeb" stroke-width="0"/>
		<rect x="630" y="626" width="92" height="50" fill="none" rx="14" stroke="#8073ac" stroke-width="2"/>
		<line x1="630" y1="651" x2="722" y2="651" stroke="#8073ac" stroke-width="1"/>
		<text x="638" y="643.75" fill="#000000" font-family="Verdana" font-size="12">APPARTIENT</text>
	</g>
	<text x="681" y="575" fill="#b35806" font-family="Verdana" font-size="12">1,1</text>
	<text x="603" y="668" fill="#b35806" font-family="Verdana" font-size="12">1,N</text>
</g>

<!-- Entity EVENT -->
<g>
	<g>
		<rect x="352" y="9" width="116" height="25" fill="#fdb863" stroke="none" stroke-width="0" opacity="1"/>
		<rect x="352" y="34" width="116" height="229" fill="#fee0b6" stroke="none" stroke-width="0" opacity="1"/>
		<rect x="352" y="9" width="116" height="254" fill="none" stroke="#e08214" stroke-width="2" opacity="1"/>
		<line x1="352" y1="34" x2="468" y2="34" stroke="#e08214" stroke-width="1"/>
	</g>
	<text x="390" y="26.75" fill="#000000" font-family="Verdana" font-size="12">EVENT</text>
	<text x="357" y="51.8" fill="#000000" font-family="Verdana" font-size="12">id</text>
	<line x1="357" y1="54" x2="369" y2="54" stroke="#000000" stroke-width="1"/>
	<text x="357" y="68.8" fill="#000000" font-family="Verdana" font-size="12">title</text>
	<text x="357" y="85.8" fill="#000000" font-family="Verdana" font-size="12">tag</text>
	<text x="357" y="102.8" fill="#000000" font-family="Verdana" font-size="12">description</text>
	<text x="357" y="119.8" fill="#000000" font-family="Verdana" font-size="12">date</text>
	<text x="357" y="136.8" fill="#000000" font-family="Verdana" font-size="12">time</text>
	<text x="357" y="153.8" fill="#000000" font-family="Verdana" font-size="12">street</text>
	<text x="357" y="170.8" fill="#000000" font-family="Verdana" font-size="12">city</text>
	<text x="357" y="187.8" fill="#000000" font-family="Verdana" font-size="12">postal_code</text>
	<text x="357" y="204.8" fill="#000000" font-family="Verdana" font-size="12">thumbnail_image</text>
	<text x="357" y="221.8" fill="#000000" font-family="Verdana" font-size="12">full_image</text>
	<text x="357" y="238.8" fill="#000000" font-family="Verdana" font-size="12">max_participant</text>
	<text x="357" y="255.8" fill="#000000" font-family="Verdana" font-size="12">status</text>
</g>

<!-- Entity MATCH -->
<g>
	<g>
		<rect x="9" y="254" width="76" height="25" fill="#fdb863" stroke="none" stroke-width="0" opacity="1"/>
		<rect x="9" y="279" width="76" height="93" fill="#fee0b6" stroke="none" stroke-width="0" opacity="1"/>
		<rect x="9" y="254" width="76" height="118" fill="none" stroke="#e08214" stroke-width="2" opacity="1"/>
		<line x1="9" y1="279" x2="85" y2="279" stroke="#e08214" stroke-width="1"/>
	</g>
	<text x="25" y="271.75" fill="#000000" font-family="Verdana" font-size="12">MATCH</text>
	<text x="14" y="296.8" fill="#000000" font-family="Verdana" font-size="12">id</text>
	<line x1="14" y1="299" x2="26" y2="299" stroke="#000000" stroke-width="1"/>
	<text x="14" y="313.8" fill="#000000" font-family="Verdana" font-size="12">user_id_1</text>
	<text x="14" y="330.8" fill="#000000" font-family="Verdana" font-size="12">user_id_2</text>
	<text x="14" y="347.8" fill="#000000" font-family="Verdana" font-size="12">status</text>
	<text x="14" y="364.8" fill="#000000" font-family="Verdana" font-size="12">created_at</text>
</g>

<!-- Entity USER -->
<g>
	<g>
		<rect x="240" y="237" width="80" height="25" fill="#fdb863" stroke="none" stroke-width="0" opacity="1"/>
		<rect x="240" y="262" width="80" height="127" fill="#fee0b6" stroke="none" stroke-width="0" opacity="1"/>
		<rect x="240" y="237" width="80" height="152" fill="none" stroke="#e08214" stroke-width="2" opacity="1"/>
		<line x1="240" y1="262" x2="320" y2="262" stroke="#e08214" stroke-width="1"/>
	</g>
	<text x="263" y="254.75" fill="#000000" font-family="Verdana" font-size="12">USER</text>
	<text x="245" y="279.8" fill="#000000" font-family="Verdana" font-size="12">id</text>
	<line x1="245" y1="282" x2="257" y2="282" stroke="#000000" stroke-width="1"/>
	<text x="245" y="296.8" fill="#000000" font-family="Verdana" font-size="12">mail</text>
	<text x="245" y="313.8" fill="#000000" font-family="Verdana" font-size="12">password</text>
	<text x="245" y="330.8" fill="#000000" font-family="Verdana" font-size="12">created_at</text>
	<text x="245" y="347.8" fill="#000000" font-family="Verdana" font-size="12">disabled_at</text>
	<text x="245" y="364.8" fill="#000000" font-family="Verdana" font-size="12">deleted_at</text>
	<text x="245" y="381.8" fill="#000000" font-family="Verdana" font-size="12">verified_at</text>
</g>

<!-- Entity PROFIL -->
<g>
	<g>
		<rect x="108" y="397" width="94" height="25" fill="#fdb863" stroke="none" stroke-width="0" opacity="1"/>
		<rect x="108" y="422" width="94" height="179" fill="#fee0b6" stroke="none" stroke-width="0" opacity="1"/>
		<rect x="108" y="397" width="94" height="204" fill="none" stroke="#e08214" stroke-width="2" opacity="1"/>
		<line x1="108" y1="422" x2="202" y2="422" stroke="#e08214" stroke-width="1"/>
	</g>
	<text x="133" y="414.75" fill="#000000" font-family="Verdana" font-size="12">PROFIL</text>
	<text x="113" y="439.8" fill="#000000" font-family="Verdana" font-size="12">id</text>
	<line x1="113" y1="442" x2="125" y2="442" stroke="#000000" stroke-width="1"/>
	<text x="113" y="456.8" fill="#000000" font-family="Verdana" font-size="12">pseudo</text>
	<text x="113" y="473.8" fill="#000000" font-family="Verdana" font-size="12">age</text>
	<text x="113" y="490.8" fill="#000000" font-family="Verdana" font-size="12">gender</text>
	<text x="113" y="507.8" fill="#000000" font-family="Verdana" font-size="12">looking_for</text>
	<text x="113" y="524.8" fill="#000000" font-family="Verdana" font-size="12">city</text>
	<text x="113" y="541.8" fill="#000000" font-family="Verdana" font-size="12">description</text>
	<text x="113" y="558.8" fill="#000000" font-family="Verdana" font-size="12">interests</text>
	<text x="113" y="575.8" fill="#000000" font-family="Verdana" font-size="12">profile_image</text>
	<text x="113" y="592.8" fill="#000000" font-family="Verdana" font-size="12">last_online</text>
</g>

<!-- Entity MESSAGE -->
<g>
	<g>
		<rect x="638" y="440" width="76" height="25" fill="#fdb863" stroke="none" stroke-width="0" opacity="1"/>
		<rect x="638" y="465" width="76" height="93" fill="#fee0b6" stroke="none" stroke-width="0" opacity="1"/>
		<rect x="638" y="440" width="76" height="118" fill="none" stroke="#e08214" stroke-width="2" opacity="1"/>
		<line x1="638" y1="465" x2="714" y2="465" stroke="#e08214" stroke-width="1"/>
	</g>
	<text x="646" y="457.75" fill="#000000" font-family="Verdana" font-size="12">MESSAGE</text>
	<text x="643" y="482.8" fill="#000000" font-family="Verdana" font-size="12">id</text>
	<line x1="643" y1="485" x2="655" y2="485" stroke="#000000" stroke-width="1"/>
	<text x="643" y="499.8" fill="#000000" font-family="Verdana" font-size="12">content</text>
	<text x="643" y="516.8" fill="#000000" font-family="Verdana" font-size="12">created_at</text>
	<text x="643" y="533.8" fill="#000000" font-family="Verdana" font-size="12">change_at</text>
	<text x="643" y="550.8" fill="#000000" font-family="Verdana" font-size="12">deleted_at</text>
</g>

<!-- Entity CONVERSATION -->
<g>
	<g>
		<rect x="488" y="600" width="110" height="25" fill="#fdb863" stroke="none" stroke-width="0" opacity="1"/>
		<rect x="488" y="625" width="110" height="77" fill="#fee0b6" stroke="none" stroke-width="0" opacity="1"/>
		<rect x="488" y="600" width="110" height="102" fill="none" stroke="#e08214" stroke-width="2" opacity="1"/>
		<line x1="488" y1="625" x2="598" y2="625" stroke="#e08214" stroke-width="1"/>
	</g>
	<text x="494" y="617.75" fill="#000000" font-family="Verdana" font-size="12">CONVERSATION</text>
	<text x="493" y="642.8" fill="#000000" font-family="Verdana" font-size="12">id</text>
	<line x1="493" y1="645" x2="505" y2="645" stroke="#000000" stroke-width="1"/>
	<text x="493" y="659.8" fill="#000000" font-family="Verdana" font-size="12">created_at</text>
	<text x="493" y="676.8" fill="#000000" font-family="Verdana" font-size="12">user_id_1</text>
	<text x="493" y="693.8" fill="#000000" font-family="Verdana" font-size="12">user_id_2</text>
</g>

<!-- Entity INTEREST -->
<g>
	<g>
		<rect x="119" y="701" width="72" height="25" fill="#fdb863" stroke="none" stroke-width="0" opacity="1"/>
		<rect x="119" y="726" width="72" height="43" fill="#fee0b6" stroke="none" stroke-width="0" opacity="1"/>
		<rect x="119" y="701" width="72" height="68" fill="none" stroke="#e08214" stroke-width="2" opacity="1"/>
		<line x1="119" y1="726" x2="191" y2="726" stroke="#e08214" stroke-width="1"/>
	</g>
	<text x="124" y="718.75" fill="#000000" font-family="Verdana" font-size="12">INTEREST</text>
	<text x="124" y="743.8" fill="#000000" font-family="Verdana" font-size="12">id</text>
	<line x1="124" y1="746" x2="136" y2="746" stroke="#000000" stroke-width="1"/>
	<text x="124" y="760.8" fill="#000000" font-family="Verdana" font-size="12">name</text>
</g>
</svg>