<?xml version="1.0" encoding="utf-8"?>
<!-- Generated by Mocodo 4.2.12 -->
<svg width="603" height="718" viewBox="0 0 603 718" xmlns="http://www.w3.org/2000/svg">
<rect x="0" y="0" width="603" height="718" fill="#f7f7f7" stroke="none" stroke-width="0"/>

<!-- Association APPARTIENT1 -->
<g>
	<line x1="181" y1="211" x2="64" y2="211" stroke="#8073ac" stroke-width="2"/>
	<line x1="64" y1="397" x2="64" y2="211" stroke="#8073ac" stroke-width="2"/>
	<g>
		<path d="M96 186 a14 14 90 0 1 14 14 V211 h-92 V200 a14 14 90 0 1 14 -14" fill="#b2abd2" stroke="#b2abd2" stroke-width="0"/>
		<path d="M110 211 v11 a14 14 90 0 1 -14 14 H32 a14 14 90 0 1 -14 -14 V211 H92" fill="#d8daeb" stroke="#d8daeb" stroke-width="0"/>
		<rect x="18" y="186" width="92" height="50" fill="none" rx="14" stroke="#8073ac" stroke-width="2"/>
		<line x1="18" y1="211" x2="110" y2="211" stroke="#8073ac" stroke-width="1"/>
		<text x="26" y="203.75" fill="#000000" font-family="Verdana" font-size="12">APPARTIENT</text>
	</g>
	<text x="117" y="228" fill="#b35806" font-family="Verdana" font-size="12">1,1</text>
	<text x="69" y="338" fill="#b35806" font-family="Verdana" font-size="12">1,N</text>
</g>

<!-- Association APPARTIENT -->
<g>
	<line x1="298" y1="85" x2="298" y2="211" stroke="#8073ac" stroke-width="2"/>
	<line x1="298" y1="397" x2="298" y2="211" stroke="#8073ac" stroke-width="2"/>
	<g>
		<path d="M330 186 a14 14 90 0 1 14 14 V211 h-92 V200 a14 14 90 0 1 14 -14" fill="#b2abd2" stroke="#b2abd2" stroke-width="0"/>
		<path d="M344 211 v11 a14 14 90 0 1 -14 14 H266 a14 14 90 0 1 -14 -14 V211 H92" fill="#d8daeb" stroke="#d8daeb" stroke-width="0"/>
		<rect x="252" y="186" width="92" height="50" fill="none" rx="14" stroke="#8073ac" stroke-width="2"/>
		<line x1="252" y1="211" x2="344" y2="211" stroke="#8073ac" stroke-width="1"/>
		<text x="260" y="203.75" fill="#000000" font-family="Verdana" font-size="12">APPARTIENT</text>
	</g>
	<text x="303" y="178" fill="#b35806" font-family="Verdana" font-size="12">1,1</text>
	<text x="272" y="287" fill="#b35806" font-family="Verdana" font-size="12">1,1</text>
</g>

<!-- Association RESERVER -->
<g>
	<line x1="298" y1="397" x2="417" y2="211" stroke="#8073ac" stroke-width="2"/>
	<line x1="536" y1="397" x2="417" y2="211" stroke="#8073ac" stroke-width="2"/>
	<g>
		<path d="M443 186 a14 14 90 0 1 14 14 V211 h-80 V200 a14 14 90 0 1 14 -14" fill="#b2abd2" stroke="#b2abd2" stroke-width="0"/>
		<path d="M457 211 v11 a14 14 90 0 1 -14 14 H391 a14 14 90 0 1 -14 -14 V211 H80" fill="#d8daeb" stroke="#d8daeb" stroke-width="0"/>
		<rect x="377" y="186" width="80" height="50" fill="none" rx="14" stroke="#8073ac" stroke-width="2"/>
		<line x1="377" y1="211" x2="457" y2="211" stroke="#8073ac" stroke-width="1"/>
		<text x="385" y="203.75" fill="#000000" font-family="Verdana" font-size="12">RESERVER</text>
	</g>
	<text x="350" y="335.61" fill="#b35806" font-family="Verdana" font-size="12">0,N</text>
	<text x="451" y="318.42" fill="#b35806" font-family="Verdana" font-size="12">1,N</text>
</g>

<!-- Association CREER -->
<g>
	<line x1="298" y1="397" x2="181" y2="397" stroke="#8073ac" stroke-width="2"/>
	<line x1="181" y1="211" x2="181" y2="397" stroke="#8073ac" stroke-width="2"/>
	<g>
		<path d="M195 372 a14 14 90 0 1 14 14 V397 h-56 V386 a14 14 90 0 1 14 -14" fill="#b2abd2" stroke="#b2abd2" stroke-width="0"/>
		<path d="M209 397 v11 a14 14 90 0 1 -14 14 H167 a14 14 90 0 1 -14 -14 V397 H56" fill="#d8daeb" stroke="#d8daeb" stroke-width="0"/>
		<rect x="153" y="372" width="56" height="50" fill="none" rx="14" stroke="#8073ac" stroke-width="2"/>
		<line x1="153" y1="397" x2="209" y2="397" stroke="#8073ac" stroke-width="1"/>
		<text x="161" y="389.75" fill="#000000" font-family="Verdana" font-size="12">CREER</text>
	</g>
	<text x="225" y="389" fill="#b35806" font-family="Verdana" font-size="12">1,1</text>
	<text x="186" y="287" fill="#b35806" font-family="Verdana" font-size="12">1,1</text>
</g>

<!-- Association CREER2 -->
<g>
	<line x1="298" y1="397" x2="417" y2="397" stroke="#8073ac" stroke-width="2"/>
	<line x1="536" y1="397" x2="417" y2="397" stroke="#8073ac" stroke-width="2"/>
	<g>
		<path d="M431 372 a14 14 90 0 1 14 14 V397 h-56 V386 a14 14 90 0 1 14 -14" fill="#b2abd2" stroke="#b2abd2" stroke-width="0"/>
		<path d="M445 397 v11 a14 14 90 0 1 -14 14 H403 a14 14 90 0 1 -14 -14 V397 H56" fill="#d8daeb" stroke="#d8daeb" stroke-width="0"/>
		<rect x="389" y="372" width="56" height="50" fill="none" rx="14" stroke="#8073ac" stroke-width="2"/>
		<line x1="389" y1="397" x2="445" y2="397" stroke="#8073ac" stroke-width="1"/>
		<text x="397" y="389.75" fill="#000000" font-family="Verdana" font-size="12">CREER</text>
	</g>
	<text x="350" y="414" fill="#b35806" font-family="Verdana" font-size="12">0,N</text>
	<text x="452" y="414" fill="#b35806" font-family="Verdana" font-size="12">1,1</text>
</g>

<!-- Association ETRE -->
<g>
	<line x1="298" y1="397" x2="181" y2="591" stroke="#8073ac" stroke-width="2"/>
	<line x1="64" y1="397" x2="181" y2="591" stroke="#8073ac" stroke-width="2"/>
	<g>
		<path d="M190 566 a14 14 90 0 1 14 14 V591 h-46 V580 a14 14 90 0 1 14 -14" fill="#b2abd2" stroke="#b2abd2" stroke-width="0"/>
		<path d="M204 591 v11 a14 14 90 0 1 -14 14 H172 a14 14 90 0 1 -14 -14 V591 H46" fill="#d8daeb" stroke="#d8daeb" stroke-width="0"/>
		<rect x="158" y="566" width="46" height="50" fill="none" rx="14" stroke="#8073ac" stroke-width="2"/>
		<line x1="158" y1="591" x2="204" y2="591" stroke="#8073ac" stroke-width="1"/>
		<text x="165" y="583.75" fill="#000000" font-family="Verdana" font-size="12">ETRE</text>
	</g>
	<text x="224" y="471.6" fill="#b35806" font-family="Verdana" font-size="12">0,N</text>
	<text x="71.43" y="465" fill="#b35806" font-family="Verdana" font-size="12">N,N</text>
</g>

<!-- Association AVOIR -->
<g>
	<line x1="298" y1="397" x2="298" y2="591" stroke="#8073ac" stroke-width="2"/>
	<line x1="298" y1="675" x2="298" y2="591" stroke="#8073ac" stroke-width="2"/>
	<g>
		<path d="M311 566 a14 14 90 0 1 14 14 V591 h-54 V580 a14 14 90 0 1 14 -14" fill="#b2abd2" stroke="#b2abd2" stroke-width="0"/>
		<path d="M325 591 v11 a14 14 90 0 1 -14 14 H285 a14 14 90 0 1 -14 -14 V591 H54" fill="#d8daeb" stroke="#d8daeb" stroke-width="0"/>
		<rect x="271" y="566" width="54" height="50" fill="none" rx="14" stroke="#8073ac" stroke-width="2"/>
		<line x1="271" y1="591" x2="325" y2="591" stroke="#8073ac" stroke-width="1"/>
		<text x="278" y="583.75" fill="#000000" font-family="Verdana" font-size="12">AVOIR</text>
	</g>
	<text x="303" y="516" fill="#b35806" font-family="Verdana" font-size="12">0,N</text>
	<text x="303" y="633" fill="#b35806" font-family="Verdana" font-size="12">0,N</text>
</g>

<!-- Association LIKE -->
<g>
	<line x1="298" y1="397" x2="417" y2="591" stroke="#8073ac" stroke-width="2"/>
	<line x1="536" y1="591" x2="417" y2="591" stroke="#8073ac" stroke-width="2"/>
	<g>
		<path d="M425 566 a14 14 90 0 1 14 14 V591 h-44 V580 a14 14 90 0 1 14 -14" fill="#b2abd2" stroke="#b2abd2" stroke-width="0"/>
		<path d="M439 591 v11 a14 14 90 0 1 -14 14 H409 a14 14 90 0 1 -14 -14 V591 H44" fill="#d8daeb" stroke="#d8daeb" stroke-width="0"/>
		<rect x="395" y="566" width="44" height="50" fill="none" rx="14" stroke="#8073ac" stroke-width="2"/>
		<line x1="395" y1="591" x2="439" y2="591" stroke="#8073ac" stroke-width="1"/>
		<text x="403" y="583.75" fill="#000000" font-family="Verdana" font-size="12">LIKE</text>
	</g>
	<text x="350" y="470.36" fill="#b35806" font-family="Verdana" font-size="12">0,N</text>
	<text x="471" y="608" fill="#b35806" font-family="Verdana" font-size="12">1,N</text>
</g>

<!-- Entity USER -->
<g>
	<g>
		<rect x="258" y="9" width="80" height="25" fill="#fdb863" stroke="none" stroke-width="0" opacity="1"/>
		<rect x="258" y="34" width="80" height="127" fill="#fee0b6" stroke="none" stroke-width="0" opacity="1"/>
		<rect x="258" y="9" width="80" height="152" fill="none" stroke="#e08214" stroke-width="2" opacity="1"/>
		<line x1="258" y1="34" x2="338" y2="34" stroke="#e08214" stroke-width="1"/>
	</g>
	<text x="281" y="26.75" fill="#000000" font-family="Verdana" font-size="12">USER</text>
	<text x="263" y="51.8" fill="#000000" font-family="Verdana" font-size="12">id</text>
	<line x1="263" y1="54" x2="275" y2="54" stroke="#000000" stroke-width="1"/>
	<text x="263" y="68.8" fill="#000000" font-family="Verdana" font-size="12">mail</text>
	<text x="263" y="85.8" fill="#000000" font-family="Verdana" font-size="12">password</text>
	<text x="263" y="102.8" fill="#000000" font-family="Verdana" font-size="12">created_at</text>
	<text x="263" y="119.8" fill="#000000" font-family="Verdana" font-size="12">disabled_at</text>
	<text x="263" y="136.8" fill="#000000" font-family="Verdana" font-size="12">deleted_at</text>
	<text x="263" y="153.8" fill="#000000" font-family="Verdana" font-size="12">verified_at</text>
</g>

<!-- Entity MESSAGE -->
<g>
	<g>
		<rect x="143" y="152" width="76" height="25" fill="#fdb863" stroke="none" stroke-width="0" opacity="1"/>
		<rect x="143" y="177" width="76" height="93" fill="#fee0b6" stroke="none" stroke-width="0" opacity="1"/>
		<rect x="143" y="152" width="76" height="118" fill="none" stroke="#e08214" stroke-width="2" opacity="1"/>
		<line x1="143" y1="177" x2="219" y2="177" stroke="#e08214" stroke-width="1"/>
	</g>
	<text x="151" y="169.75" fill="#000000" font-family="Verdana" font-size="12">MESSAGE</text>
	<text x="148" y="194.8" fill="#000000" font-family="Verdana" font-size="12">id</text>
	<line x1="148" y1="197" x2="160" y2="197" stroke="#000000" stroke-width="1"/>
	<text x="148" y="211.8" fill="#000000" font-family="Verdana" font-size="12">content</text>
	<text x="148" y="228.8" fill="#000000" font-family="Verdana" font-size="12">created_at</text>
	<text x="148" y="245.8" fill="#000000" font-family="Verdana" font-size="12">change_at</text>
	<text x="148" y="262.8" fill="#000000" font-family="Verdana" font-size="12">deleted_at</text>
</g>

<!-- Entity CONVERSATION -->
<g>
	<g>
		<rect x="9" y="346" width="110" height="25" fill="#fdb863" stroke="none" stroke-width="0" opacity="1"/>
		<rect x="9" y="371" width="110" height="77" fill="#fee0b6" stroke="none" stroke-width="0" opacity="1"/>
		<rect x="9" y="346" width="110" height="102" fill="none" stroke="#e08214" stroke-width="2" opacity="1"/>
		<line x1="9" y1="371" x2="119" y2="371" stroke="#e08214" stroke-width="1"/>
	</g>
	<text x="15" y="363.75" fill="#000000" font-family="Verdana" font-size="12">CONVERSATION</text>
	<text x="14" y="388.8" fill="#000000" font-family="Verdana" font-size="12">id</text>
	<line x1="14" y1="391" x2="26" y2="391" stroke="#000000" stroke-width="1"/>
	<text x="14" y="405.8" fill="#000000" font-family="Verdana" font-size="12">created_at</text>
	<text x="14" y="422.8" fill="#000000" font-family="Verdana" font-size="12">updated_at</text>
	<text x="14" y="439.8" fill="#000000" font-family="Verdana" font-size="12">deleted_at</text>
</g>

<!-- Entity PROFILE -->
<g>
	<g>
		<rect x="251" y="295" width="94" height="25" fill="#fdb863" stroke="none" stroke-width="0" opacity="1"/>
		<rect x="251" y="320" width="94" height="179" fill="#fee0b6" stroke="none" stroke-width="0" opacity="1"/>
		<rect x="251" y="295" width="94" height="204" fill="none" stroke="#e08214" stroke-width="2" opacity="1"/>
		<line x1="251" y1="320" x2="345" y2="320" stroke="#e08214" stroke-width="1"/>
	</g>
	<text x="272" y="312.75" fill="#000000" font-family="Verdana" font-size="12">PROFILE</text>
	<text x="256" y="337.8" fill="#000000" font-family="Verdana" font-size="12">id</text>
	<line x1="256" y1="340" x2="268" y2="340" stroke="#000000" stroke-width="1"/>
	<text x="256" y="354.8" fill="#000000" font-family="Verdana" font-size="12">pseudo</text>
	<text x="256" y="371.8" fill="#000000" font-family="Verdana" font-size="12">age</text>
	<text x="256" y="388.8" fill="#000000" font-family="Verdana" font-size="12">gender</text>
	<text x="256" y="405.8" fill="#000000" font-family="Verdana" font-size="12">looking_for</text>
	<text x="256" y="422.8" fill="#000000" font-family="Verdana" font-size="12">city</text>
	<text x="256" y="439.8" fill="#000000" font-family="Verdana" font-size="12">description</text>
	<text x="256" y="456.8" fill="#000000" font-family="Verdana" font-size="12">interests</text>
	<text x="256" y="473.8" fill="#000000" font-family="Verdana" font-size="12">profile_image</text>
	<text x="256" y="490.8" fill="#000000" font-family="Verdana" font-size="12">last_online</text>
</g>

<!-- Entity EVENT -->
<g>
	<g>
		<rect x="478" y="270" width="116" height="25" fill="#fdb863" stroke="none" stroke-width="0" opacity="1"/>
		<rect x="478" y="295" width="116" height="229" fill="#fee0b6" stroke="none" stroke-width="0" opacity="1"/>
		<rect x="478" y="270" width="116" height="254" fill="none" stroke="#e08214" stroke-width="2" opacity="1"/>
		<line x1="478" y1="295" x2="594" y2="295" stroke="#e08214" stroke-width="1"/>
	</g>
	<text x="516" y="287.75" fill="#000000" font-family="Verdana" font-size="12">EVENT</text>
	<text x="483" y="312.8" fill="#000000" font-family="Verdana" font-size="12">id</text>
	<line x1="483" y1="315" x2="495" y2="315" stroke="#000000" stroke-width="1"/>
	<text x="483" y="329.8" fill="#000000" font-family="Verdana" font-size="12">title</text>
	<text x="483" y="346.8" fill="#000000" font-family="Verdana" font-size="12">tag</text>
	<text x="483" y="363.8" fill="#000000" font-family="Verdana" font-size="12">description</text>
	<text x="483" y="380.8" fill="#000000" font-family="Verdana" font-size="12">date</text>
	<text x="483" y="397.8" fill="#000000" font-family="Verdana" font-size="12">time</text>
	<text x="483" y="414.8" fill="#000000" font-family="Verdana" font-size="12">street</text>
	<text x="483" y="431.8" fill="#000000" font-family="Verdana" font-size="12">city</text>
	<text x="483" y="448.8" fill="#000000" font-family="Verdana" font-size="12">postal_code</text>
	<text x="483" y="465.8" fill="#000000" font-family="Verdana" font-size="12">thumbnail_image</text>
	<text x="483" y="482.8" fill="#000000" font-family="Verdana" font-size="12">full_image</text>
	<text x="483" y="499.8" fill="#000000" font-family="Verdana" font-size="12">max_participant</text>
	<text x="483" y="516.8" fill="#000000" font-family="Verdana" font-size="12">status</text>
</g>

<!-- Entity MATCH -->
<g>
	<g>
		<rect x="498" y="549" width="76" height="25" fill="#fdb863" stroke="none" stroke-width="0" opacity="1"/>
		<rect x="498" y="574" width="76" height="59" fill="#fee0b6" stroke="none" stroke-width="0" opacity="1"/>
		<rect x="498" y="549" width="76" height="84" fill="none" stroke="#e08214" stroke-width="2" opacity="1"/>
		<line x1="498" y1="574" x2="574" y2="574" stroke="#e08214" stroke-width="1"/>
	</g>
	<text x="514" y="566.75" fill="#000000" font-family="Verdana" font-size="12">MATCH</text>
	<text x="503" y="591.8" fill="#000000" font-family="Verdana" font-size="12">id</text>
	<line x1="503" y1="594" x2="515" y2="594" stroke="#000000" stroke-width="1"/>
	<text x="503" y="608.8" fill="#000000" font-family="Verdana" font-size="12">created_at</text>
	<text x="503" y="625.8" fill="#000000" font-family="Verdana" font-size="12">status</text>
</g>

<!-- Entity INTEREST -->
<g>
	<g>
		<rect x="262" y="641" width="72" height="25" fill="#fdb863" stroke="none" stroke-width="0" opacity="1"/>
		<rect x="262" y="666" width="72" height="43" fill="#fee0b6" stroke="none" stroke-width="0" opacity="1"/>
		<rect x="262" y="641" width="72" height="68" fill="none" stroke="#e08214" stroke-width="2" opacity="1"/>
		<line x1="262" y1="666" x2="334" y2="666" stroke="#e08214" stroke-width="1"/>
	</g>
	<text x="267" y="658.75" fill="#000000" font-family="Verdana" font-size="12">INTEREST</text>
	<text x="267" y="683.8" fill="#000000" font-family="Verdana" font-size="12">id</text>
	<line x1="267" y1="686" x2="279" y2="686" stroke="#000000" stroke-width="1"/>
	<text x="267" y="700.8" fill="#000000" font-family="Verdana" font-size="12">name</text>
</g>
</svg>